<svg width="250" height="53" fill="none" xmlns="http://www.w3.org/2000/svg"><g clip-path="url(#a)"><path d="M45.01 24.057c.133.102.254.225.403.301.717.373 1.428.767 2.169 1.083.31.133.695.09 1.046.13.102.012.204.038.302.057-.051.087-.084.198-.159.257a6.829 6.829 0 0 1-.776.566c-.628.37-1.32.444-2.04.386-.73-.059-1.417-.273-2.085-.564-.034-.015-.079-.005-.158-.009.203.305.402.573.567.859.286.494.566.992.82 1.503.2.404.377.819.53 1.243.147.411.269.83.363 1.257.12.56.2 1.129.298 1.693.03.177-.062.269-.255.223a7.278 7.278 0 0 1-.778-.227c-.393-.138-.791-.27-1.166-.45a13.89 13.89 0 0 1-1.503-.818 8.541 8.541 0 0 1-1.836-1.626.593.593 0 0 0-.32-.177c.19.367.375.738.573 1.1.34.621.672 1.245 1.035 1.852.425.711.843 1.434 1.466 1.994.225.204.534.315.807.464.078.043.163.071.285.124-.078.05-.114.097-.153.101-.63.057-1.25.257-1.893.167-.688-.097-1.315-.347-1.785-.86a13.115 13.115 0 0 1-1.172-1.485c-.258-.38-.425-.819-.634-1.23a1.24 1.24 0 0 0-.091-.136l-.086.016c.022.224.037.45.067.673.035.258.102.515.123.774.045.59.08 1.18.102 1.772a7.038 7.038 0 0 1-.289 2.203c-.077.268-.236.322-.445.16a9.584 9.584 0 0 1-1.992-2.076c-.264-.38-.488-.787-.74-1.196-.107.142-.034.298.011.448.021.073.081.137.088.208.005.122.002.243-.009.365-.097-.033-.194-.064-.29-.1-1.081-.392-1.623-1.278-2.057-2.248-.236-.527-.434-1.07-.64-1.61-.048-.124-.048-.266-.087-.396-.047-.155-.11-.307-.192-.526-.125.19-.212.312-.286.439-.153.254-.301.3-.497.085-.282-.31-.564-.633-.78-.99-.235-.388-.393-.823-.588-1.235-.344-.728-.627-1.474-.753-2.274-.032-.198-.147-.224-.33-.21a3.907 3.907 0 0 1-1.584-.217c-.068.243-.16.492-.204.75-.026.156.119.128.234.136.787.06 1.546.218 2.005.94.21.33.33.718.484 1.08.14.332.258.672.413.996.27.57.54 1.14.852 1.689.361.638.745 1.265 1.16 1.87.37.542.76 1.08 1.208 1.557.471.501 1.02.932 1.541 1.382.163.14.175.254-.012.372-.465.295-.98.44-1.523.512-.075.01-.146.055-.22.085a1 1 0 0 0 .094.195c.46.595.902 1.2 1.381 1.778.729.877 1.484 1.732 2.224 2.6.242.283.536.196.824.126.726-.176 1.416-.508 2.192-.474.09.004.22-.101.27-.189.456-.796 1.317-.884 2.016-.446.177.11.269.355.405.532.079.102.153.258.255.283.216.053.299.209.396.364.097.156.182.333.284.492.33.517.173 1.348-.327 1.713-.414.301-.4.293-.653-.153-.114-.203-.287-.376-.459-.537-.066-.062-.204-.07-.308-.068-.431.01-.845-.023-1.204-.305-.051-.041-.171-.039-.239-.01-.292.125-.576.269-.858.402.329.28.977.337 1.383.18.407-.159.82-.075 1.164.168.408.286.642.682.587 1.213-.02.21-.039.42.09.635.057.095-.046.295-.093.443-.047.147-.17.289-.169.432.012.702-.575 1.06-1.102 1.154-.19.033-.39.014-.585.013-.163 0-.228-.071-.18-.244.07-.243.123-.49.162-.739.028-.203-.09-.326-.255-.457a1.923 1.923 0 0 1-.465-.578c-.173-.322-.339-.412-.583-.275.157.19.349.367.472.583.255.447.265.907-.014 1.364-.054.09-.061.229-.044.339.034.227-.064.389-.204.549-.086.101-.197.206-.222.325-.153.744-.914.923-1.498.822-.117-.02-.232-.05-.35-.067-.282-.041-.313-.138-.149-.386.107-.16.196-.331.264-.511.11-.294-.045-.517-.209-.753-.233-.338-.295-.722-.211-1.134.022-.109-.036-.251-.097-.356-.243-.417-.497-.829-.758-1.236a.298.298 0 0 0-.21-.127c-.398-.006-.797.011-1.194.051-.118.014-.227.17-.324.277-.078.085-.127.195-.197.289-.07.093-.22.185-.221.278-.003.24.05.481.096.72.013.073.069.137.09.208.074.245.019.328-.241.34-.26.012-.51.006-.765.012-.462.011-.925-.492-.982-.943-.014-.101-.076-.24-.158-.287a.438.438 0 0 1-.236-.466 1.538 1.538 0 0 0-.105-.762c-.13-.332.021-.682.19-.969.313-.533.972-.803 1.559-.605.191.065.38.14.575.193.084.024.203.04.263-.002.045-.032.048-.171.022-.245-.051-.14-.106-.3-.21-.395-.567-.517-1.149-1.016-1.728-1.52-.78-.677-1.567-1.345-2.34-2.028-.29-.254-.267-.25-.548.016-.292.278-.607.542-1.02.64-.007 0-.016 0-.024.004-.47.153-.472.153-.549-.337-.076-.489-.129-.988-.226-1.476-.066-.327-.186-.643-.292-.96-.125-.374-.244-.752-.398-1.114-.16-.377-.353-.742-.548-1.103-.12-.224-.27-.433-.417-.666-.123.168.212 1.917.336 2.334.22.763.541 1.493.956 2.17-.102.01-.182.04-.24.017-.326-.13-.646-.275-.968-.41a1.405 1.405 0 0 0-.209-.054c-.004.07-.027.145-.012.21.142.594.349 1.158.737 1.643.423.527.98.593 1.51.17.223-.178.23-.166.353.086.196.402.174.82.113 1.24-.055.373-.592.869-.974.93-.37.06-.738.108-1.11 0-.066-.019-.153.022-.226.036.04.057.069.129.122.168.432.324.856.658 1.307.955.334.22.725.314 1.131.314.289 0 .45-.13.47-.421.013-.228.01-.456-.009-.684-.02-.305.017-.324.315-.294.62.063 1.053.416 1.377.898.396.589.421 1.225.188 1.9-.116.337-.285.596-.592.801.204.191.414.356.586.56a1.883 1.883 0 0 1 .435 1.676c-.16.75-.624 1.284-1.3 1.666-.727.406-1.503.403-2.277.304-.448-.055-.882-.23-1.3-.446-.478-.248-.854-.599-1.234-.955-.102-.094-.17-.216-.273-.349-.04.069-.08.107-.085.15-.047.359-.068.723-.133 1.079-.094.512-.184 1.029-.338 1.524-.164.526-.396 1.031-.612 1.54-.03.071-.133.112-.204.166a1.102 1.102 0 0 1-.14-.182c-.153-.318-.315-.633-.444-.96a7.474 7.474 0 0 1-.29-.926 13.91 13.91 0 0 1-.237-1.163c-.05-.341-.07-.688-.108-1.032a.953.953 0 0 0-.054-.178.854.854 0 0 0-.143.11c-.382.46-.843.849-1.362 1.148-.785.445-1.622.572-2.495.508-.98-.074-1.743-.565-2.22-1.406-.358-.627-.345-1.321-.005-1.968.12-.23.353-.407.538-.6.08-.083.17-.158.262-.244-.72-.605-.793-1.389-.638-2.205.093-.49.454-.83.846-1.132.28-.216.612-.23.929-.309.051-.012.173.074.181.127a.802.802 0 0 1-.039.347c-.089.28-.017.54.098.785.037.076.178.145.272.146.236.005.488.015.706-.058.761-.254 1.377-.743 1.957-1.277.014-.014.012-.046.032-.125-.207.019-.396.02-.578.055-.603.117-1.354-.172-1.642-.698-.117-.212-.157-.486-.162-.732-.005-.246.069-.502.125-.749.051-.227.2-.266.4-.147.185.111.376.245.58.282.546.101.865-.28 1.09-.671.252-.441.408-.938.596-1.414.025-.063-.017-.152-.027-.229-.064.029-.129.056-.191.087-.16.077-.314.163-.476.232-.17.071-.344.133-.521.187-.057.017-.125-.005-.188-.008.01-.06.005-.13.034-.178.357-.61.68-1.237.835-1.931.154-.694.293-1.381.429-2.074.015-.075-.031-.16-.051-.241-.065.05-.153.09-.192.158-.275.508-.566 1.016-.8 1.545-.195.445-.327.919-.473 1.385-.107.343-.204.691-.28 1.043-.071.329-.107.666-.159 1-.022.148-.043.296-.073.443-.033.159-.144.14-.255.096-.508-.197-.993-.43-1.338-.873-.124-.16-.228-.08-.339.014-.552.47-1.108.938-1.659 1.412-.704.605-1.408 1.21-2.105 1.825-.191.178-.372.366-.542.563a.31.31 0 0 0-.084.178c.002.105.013.21.032.313.11-.02.228-.02.327-.063.73-.318 1.668-.269 2.048.498.134.27.142.613.163.925.016.24-.056.483-.055.725 0 .204-.081.333-.216.483-.149.166-.233.396-.319.61-.146.36-.414.587-.784.636-.306.04-.626.005-.938-.013-.178-.01-.213-.107-.157-.283.093-.304.17-.612.229-.924.012-.061-.052-.147-.098-.208a7.309 7.309 0 0 0-.424-.52c-.069-.074-.168-.162-.26-.17-.38-.03-.764-.041-1.145-.038a.358.358 0 0 0-.243.146c-.268.396-.526.799-.775 1.208a.62.62 0 0 0-.094.348c.048.513.008.984-.361 1.4-.194.219-.04.487.046.721.051.141.147.267.224.398.085.146.059.24-.122.268-.25.04-.5.092-.753.121-.505.06-1.09-.388-1.223-.914-.023-.092-.064-.204-.134-.254-.204-.14-.24-.325-.232-.553a.841.841 0 0 0-.097-.376c-.215-.447-.25-.893.014-1.325.134-.221.315-.414.47-.61-.244-.107-.421-.055-.528.218-.115.292-.317.54-.58.712a.446.446 0 0 0-.165.332c.017.234.064.465.14.687.085.272.038.342-.253.356-.372.02-.727-.029-1.059-.2-.387-.204-.501-.567-.575-.96a1.27 1.27 0 0 0-.153-.44c-.126-.204-.14-.388-.042-.597a.355.355 0 0 0 .043-.188 1.597 1.597 0 0 1 .055-.768c.272-.819 1.11-1.181 1.69-.886.53.271.892-.066 1.335-.216-.073-.033-.146-.065-.217-.101-.174-.086-.341-.188-.522-.254-.097-.035-.244-.051-.32 0-.32.203-.672.326-1.034.272-.464-.067-.681.215-.86.527-.351.616-.342.631-.84.142-.403-.398-.589-1.317-.05-1.779.073-.063.106-.189.128-.292a.457.457 0 0 1 .352-.384.43.43 0 0 0 .247-.211c.266-.623.75-.899 1.405-.87a1.222 1.222 0 0 1 1.053.652c.102.18.22.227.42.254.467.059.93.157 1.392.259.287.063.568.158.85.244.46.14.693-.182.93-.464a381.497 381.497 0 0 0 2.633-3.184c.252-.304.492-.622.732-.938.037-.05.075-.13.056-.174-.018-.044-.107-.059-.168-.065a3.787 3.787 0 0 1-1.618-.544c-.158-.099-.157-.23-.011-.325.877-.57 1.589-1.316 2.197-2.15a32.53 32.53 0 0 0 1.61-2.45c.39-.653.722-1.343 1.047-2.033.173-.366.255-.773.414-1.148.217-.515.437-1.055.941-1.354.297-.175.656-.254.996-.345.191-.05.404-.021.6-.059.06-.01.154-.134.14-.19a3.112 3.112 0 0 0-.184-.573c-.018-.042-.114-.083-.168-.076-.468.055-.933.149-1.402.172-.242.012-.328.064-.388.305-.135.534-.318 1.057-.488 1.582-.068.211-.146.419-.23.625-.345.854-.77 1.66-1.478 2.283-.122.108-.234.09-.325-.036-.077-.109-.134-.232-.212-.341-.039-.055-.111-.134-.153-.126-.055.01-.12.09-.139.153-.076.25-.117.508-.204.755-.2.559-.382 1.13-.642 1.661-.224.458-.527.877-.826 1.292-.253.355-.611.622-1.025.762-.07.024-.13.079-.202.102a2.751 2.751 0 0 1-.29.063l.218-.957-.076-.026c-.153.235-.317.463-.452.707-.389.701-.917 1.287-1.494 1.835-.262.251-.545.48-.823.715-.177.15-.292.093-.364-.126-.306-.91-.398-1.85-.333-2.794.05-.753.195-1.5.294-2.248.02-.161.024-.324.04-.554-.095.072-.14.088-.153.117-.32.801-.76 1.55-1.302 2.221-.421.517-.891 1.005-1.53 1.26a3.711 3.711 0 0 1-.833.2c-.63.091-1.243-.098-1.864-.153-.041-.003-.079-.047-.167-.102.153-.07.26-.13.373-.172.696-.26 1.143-.788 1.52-1.39.264-.422.54-.836.789-1.264.285-.487.547-.986.819-1.48.138-.25.28-.5.415-.753.092-.171.177-.346.265-.52l-.051-.04c-.317.317-.629.64-.952.95a8.388 8.388 0 0 1-2.23 1.538c-.362.17-.727.335-1.097.488a5.989 5.989 0 0 1-.6.19c-.233.07-.466.14-.703.195-.182.043-.279-.024-.24-.23.12-.647.186-1.309.365-1.939.351-1.23.8-2.429 1.512-3.51.19-.287.381-.573.565-.863.035-.057.04-.133.06-.203-.423.125-.814.238-1.202.355a4.763 4.763 0 0 1-1.805.18c-.821-.067-1.454-.508-2.06-1.007-.06-.051-.085-.146-.152-.261 1.657.144 2.83-.785 4.078-1.524l-.03-.109c-.135.016-.272.021-.408.051-.68.142-1.353.013-2.023-.076a10.953 10.953 0 0 1-1.087-.226c-.226-.054-.294-.27-.156-.51.344-.596.731-1.153 1.312-1.551.383-.262.755-.538 1.13-.813.083-.061.152-.14.275-.25a2.982 2.982 0 0 0-.292-.077 3.38 3.38 0 0 1-1.928-.925c-.377-.356-.408-.837-.51-1.294-.005-.022.153-.123.185-.104.697.429 1.496.318 2.252.426.377.053.762.05 1.144.07.05.003.106-.026.167-.087l-.602-.216c-.537-.195-1.102-.337-1.604-.6-.541-.281-1.024-.673-1.53-1.021a1.98 1.98 0 0 1-.31-.262c-.102-.108-.123-.224.044-.304.318-.15.63-.312.954-.448.279-.116.567-.209.855-.298.264-.082.536-.138.8-.22.087-.027.16-.101.255-.161-.287-.212-.546-.392-.794-.588-.373-.296-.693-.633-.86-1.098a1.418 1.418 0 0 1 .012-1.016c.069-.181.208-.197.349-.095.529.387 1.121.639 1.73.87.357.136.706.305 1.058.457.035.015.078.01.143-.033-.18-.136-.362-.27-.542-.407-.711-.542-1.352-1.152-1.836-1.907a4.187 4.187 0 0 1-.286-.584c-.06-.138-.01-.217.146-.254.729-.162 1.456-.228 2.188-.021.066.018.141 0 .27 0a103.5 103.5 0 0 0-.502-.81c-.33-.53-.286-1.423.088-1.808.167-.173.24-.168.37.028.228.342.88.939 1.218 1.088-.068-.153-.102-.27-.167-.366-.417-.61-.627-1.296-.734-2.02-.027-.18.04-.26.213-.254.45.012.91-.027 1.346.06.507.1.99.313 1.486.47.07.023.153 0 .23 0-.026-.064-.037-.143-.08-.192-.498-.574-.818-1.252-1.14-1.928-.064-.136-.05-.317-.04-.474.005-.054.126-.147.183-.14.51.06 1.02.129 1.53.217.34.058.675.137 1.006.234.38.107.753.236 1.119.385.475.19.938.408 1.387.653.779.44 1.553.892 2.298 1.385 1.138.754 2.196 1.614 3.03 2.704.32.418.575.888.83 1.35.187.342.38.696.477 1.067.2.765.357 1.537.124 2.34-.133.458-.267.901-.56 1.286a4.107 4.107 0 0 1-1.185 1.048c-.057.033-.128.107-.127.161.004.486-.082.984.177 1.44.186.333.48.592.835.734.42.177.854.203 1.295.208.08 0 .201-.04.233-.099.178-.331.342-.67.498-1.013.232-.508.447-1.03.681-1.54.31-.671.862-1.16 1.32-1.72.53-.647.998-1.335 1.303-2.123.145-.371.29-.733.154-1.143-.138-.409-.224-.502-.648-.477-.26.022-.514.077-.76.162-.323.102-.36.1-.463-.213-.051-.149-.187-.149-.38-.055-.46.222-1.323.326-1.762-.046-.324-.275-.423-.89-.146-1.212a.205.205 0 0 1 .194-.027c.458.27.905.28 1.38.02.476-.26.98-.502 1.558-.443a.602.602 0 0 0 .177-.021c.02-.004.037-.027.059-.108a4.752 4.752 0 0 0-.522-.042c-.255.007-.485 0-.73-.132-.433-.23-.725-.134-1.066.25-.102.115-.233.144-.325.018a2.919 2.919 0 0 1-.377-.642c-.1-.24-.155-.497-.164-.757 0-.818.435-1.321 1.147-1.583.176-.065.385-.045.58-.051.357-.013.527-.178.459-.525a2.236 2.236 0 0 0-.282-.747c-.474-.756-.98-1.491-1.468-2.24a21.792 21.792 0 0 1-.584-.97c-.028-.051-.014-.13.005-.19.008-.02.089-.03.133-.024.536.068 1.074.13 1.608.218.147.024.279.135.422.196.125.053.254.098.386.135.055.015.121-.01.177.004.26.068.467.067.644-.208.085-.132.315-.208.491-.235.243-.037.298-.204.396-.374.178-.32.387-.623.586-.93.04-.063.102-.113.143-.176.146-.218.246-.216.391-.009.199.282.408.556.615.834.025.034.065.072.065.107 0 .473.39.513.7.652.111.053.209.13.284.228.102.128.195.188.366.152.153-.034.319-.015.477-.034a.741.741 0 0 0 .225-.074c.194-.092.375-.24.578-.277.5-.091 1.007-.137 1.512-.193a.23.23 0 0 1 .173.064c.022.025 0 .114-.03.158-.603.934-1.215 1.864-1.814 2.801-.148.23-.26.485-.412.775.115.005.195.027.264.009.38-.102.753.125.79.512.022.22.025.352.315.425.17.043.319.377.376.606.116.467-.047.878-.42 1.191-.147.124-.139.275-.07.414.236.487.194 1.006.187 1.52-.01.897-.198 1.777-.324 2.66-.13.909-.376 1.816-.235 2.745.073.48.204.952.328 1.422.117.446.247.89.391 1.328.108.325.245.64.38.956a.213.213 0 0 0 .165.09c.612.01 1.214-.02 1.76-.362.434-.27.612-.68.714-1.144.023-.107.018-.22.03-.329.043-.383-.05-.66-.423-.89a3.315 3.315 0 0 1-1.316-1.532c-.227-.53-.283-1.09-.262-1.662.032-.858.316-1.637.696-2.398.677-1.355 1.7-2.405 2.89-3.308.672-.508 1.36-1 2.07-1.455.489-.312 1.017-.566 1.545-.808a33.17 33.17 0 0 1 2.004-.835c.303-.115.63-.175.951-.233a33.976 33.976 0 0 1 1.554-.237c.122-.017.357.005.362.04a.964.964 0 0 1-.027.489 6.955 6.955 0 0 1-1.215 2.074.77.77 0 0 0-.063.129c.102 0 .192.026.251-.004.91-.467 1.887-.566 2.887-.544.175.004.244.076.204.231-.085.36-.153.726-.286 1.067-.16.403-.383.78-.574 1.169a.542.542 0 0 0-.023.16l.068.051.94-.896c.017-.017.023-.047.04-.064l.347-.304c.125.152.31.281.364.453.225.717.02 1.361-.416 1.947-.046.061-.093.12-.135.184a.783.783 0 0 0-.05.145c.198-.021.368-.032.535-.058.566-.087 1.13-.12 1.687.058.134.043.263.097.395.146-.05.132-.094.269-.153.396-.283.584-.694 1.07-1.183 1.491-.365.313-.742.613-1.111.92a.194.194 0 0 0-.054.084c-.007.02.003.046.011.132.287-.112.555-.209.816-.321.353-.153.706-.309 1.05-.48.3-.15.592-.315.875-.49.204-.127.25-.122.314.105.236.858-.102 1.681-.89 2.163a8.71 8.71 0 0 0-.629.419c-.034.025-.04.148-.008.186a.35.35 0 0 0 .203.096c.899.167 1.722.532 2.53.94.198.102.207.22.038.36-.744.617-1.522 1.184-2.436 1.531-.425.162-.862.291-1.293.435a.622.622 0 0 0-.232.112c.408.091.812.037 1.22-.012.42-.05.849-.035 1.265-.102.397-.066.782-.206 1.176-.314-.026.254-.033.472-.072.685-.071.386-.327.665-.615.9-.334.27-.707.485-1.14.58-.273.06-.54.149-.871.242.11.096.178.174.263.228.598.38 1.192.772 1.665 1.302.311.348.566.75.823 1.145.138.213.057.37-.18.442-.85.255-1.725.328-2.604.352-.276.008-.554-.05-.83-.076l-.046.1zM27.653 6.927c.125-.102.18-.169.251-.203.2-.099.326-.267.332-.47a.987.987 0 0 0-.145-.508c-.035-.059-.227-.06-.335-.034-.51.124-1.02.247-1.55.188-.412-.046-.823-.118-1.237-.133-.816-.03-1.631-.033-2.444-.036-.113 0-.231.051-.338.1-.263.112-.389.332-.346.579.036.203.28.402.535.373.45-.05.895-.14 1.341-.218.222-.039.446-.139.663-.123.605.045 1.21.125 1.81.215.198.03.384.13.575.2 0 .024-.004.05-.007.074-.075.02-.153.062-.225.05-.233-.026-.464-.079-.698-.104-.065-.006-.197.051-.196.075.01.31-.2.513-.345.747-.197.315-.526.478-.855.53-.866.135-1.398-.312-1.73-1.044-.028-.062-.123-.153-.158-.141-.073.024-.174.101-.183.167-.038.32.12.596.327.804.172.173.428.262.649.387.408.23.85.42 1.223.7.412.309.583.771.494 1.294-.085.498-.372.734-.882.752-.102.004-.203 0-.305-.007-.2-.01-.233.063-.154.245.06.14.092.287.097.438.022.425-.178.791-.313 1.18-.204.589-.55 1.088-.913 1.575-.377.505-.808.969-1.2 1.463-.449.565-.701 1.235-.985 1.887-.16.366-.334.725-.5 1.088-.022.051-.058.135-.038.155a.256.256 0 0 0 .171.064c.195.005.39-.006.584-.032a7.38 7.38 0 0 0 .952-.218.943.943 0 0 0 .433-.281c.191-.239.337-.514.5-.774.044-.07.082-.144.144-.254.042.091.074.128.074.164 0 .528.345.915.617 1.302.271.387.679.695 1.041 1.021.051.046.219.037.277-.012.282-.226.547-.473.793-.739.413-.468.76-.982.887-1.612.01-.051.051-.093.102-.182.032.073.06.148.085.224.148.603.834 1.246 1.45 1.339.286.042.575.059.862.082.212.017.289-.063.23-.267-.063-.215-.158-.421-.233-.633-.118-.328-.239-.654-.343-.987a12.464 12.464 0 0 1-.247-.897c-.102-.442-.234-.882-.276-1.33-.045-.54 0-1.082.137-1.606.134-.546.176-1.114.25-1.674.08-.61.176-1.22.216-1.83.025-.384-.023-.777-.071-1.162-.032-.254-.102-.503-.45-.52-.08-.003-.153-.112-.232-.172l.031-.075c.08-.002.16-.012.238-.029.142-.037.279-.09.408-.16.445-.266.402-.701.364-1.126-.016-.178-.11-.199-.266-.116a4.877 4.877 0 0 1-.617.274c-.072.024-.166-.012-.326-.027zm5.162 29.92c.553-.009 1.118.09 1.648-.164.133-.064.387.024.377-.203-.006-.114-.189-.22-.295-.327-.5-.502-1.034-.974-1.493-1.511-.724-.847-1.316-1.791-1.84-2.775-.213-.398-.392-.813-.589-1.22-.156-.321-.333-.633-.47-.965-.205-.484-.358-.988-.575-1.466a1.727 1.727 0 0 0-.91-.906c-.444-.192-.905-.182-1.372-.193-.17-.004-.21.061-.233.216-.055.348-.138.692-.204 1.038-.108.544-.283 1.085-.306 1.633-.04.9-.228 1.792-.112 2.7.048.377.017.758.343 1.048.128.114.204.286.298.436.36.587.717 1.174.93 1.837.148.463.363.907.48 1.377.156.632.243 1.283.371 1.923.012.059.138.155.16.143.255-.145.536-.27.738-.47.485-.486.692-1.106.733-1.784.01-.168.045-.336.048-.505.005-.248.11-.298.342-.237.632.167 1.251.42 1.931.375zm-10.25-5.013h.022c-.027-.559-.011-1.121-.092-1.671-.12-.821-.31-1.632-.47-2.448-.037-.191-.02-.472-.137-.55-.148-.1-.408-.037-.619-.037-1.054.003-1.586.508-1.94 1.316-.326.742-.599 1.51-.943 2.244a25.892 25.892 0 0 1-1.116 2.114c-.33.559-.677 1.117-1.105 1.602-.602.678-1.283 1.287-1.938 1.92-.113.11-.134.22.012.279.233.093.479.197.724.21.607.03 1.217.013 1.825.007.11-.005.219-.026.324-.06.38-.108.758-.226 1.14-.328a.193.193 0 0 1 .16.096c.049.183.064.374.103.56.095.432.14.887.31 1.289a1.899 1.899 0 0 0 1.08 1.042c.263.102.255.102.293-.178.06-.475.138-.949.237-1.416.076-.36.193-.71.299-1.061.07-.257.153-.51.25-.757a9.46 9.46 0 0 1 .472-.966c.223-.393.473-.772.714-1.156.129-.203.348-.395.374-.61.06-.473.02-.96.02-1.441zm12.363-19.632-.018-.06c-.234.078-.475.14-.702.235-.487.203-.747.595-.815 1.102-.031.228-.132.294-.347.35-.282.075-.581.193-.8.378-.172.147-.226.429-.349.641-.276.476-.066.893.156 1.301.184.335.49.538.835.685.226.094.357.004.498-.203.147-.219.36-.392.534-.594.07-.08.159-.185.156-.276-.01-.407-.028-.805.201-1.174.165-.264.298-.547.459-.813.085-.141.18-.179.306-.01.182.243.408.454.59.696.252.328.46.68.444 1.12 0 .066.076.157.142.2.185.12.435.177.564.336.327.402.605.845.89 1.28.019.031-.056.182-.103.19-.459.074-.917.149-1.376.186-.2.016-.283.067-.263.265.008.084 0 .17.005.254.032.665-.142 1.273-.482 1.845-.407.69-.965 1.227-1.616 1.686a7.515 7.515 0 0 1-2.118 1.02c-.223.07-.45.136-.676.196-.399.105-.794.233-1.2.299-.466.075-.944.084-1.413.143-.095.012-.233.101-.255.181-.157.537-.285 1.082-.427 1.626-.063.242 0 .351.25.384.286.038.574.088.86.081.371-.008.765.008 1.105-.117.56-.208 1.08-.525 1.432-1.037.152-.224.348-.286.56-.143.241.163.496.142.757.14a1.488 1.488 0 0 0 1.412-1.111.24.24 0 0 1 .169-.136.562.562 0 0 1 .297.051c.442.221.835.031 1.207-.162.582-.3.794-.834.804-1.458 0-.165.052-.224.22-.27.324-.085.637-.201.937-.348.393-.196.693-1.06.556-1.477a2.147 2.147 0 0 1-.112-.513c-.006-.095.04-.242.11-.286.408-.247.668-.592.698-1.067.02-.298.031-.629-.075-.896a1.553 1.553 0 0 0-.717-.79c-.066-.035-.102-.196-.088-.292.02-.16.116-.313.128-.474.08-1.01-.4-1.588-1.46-1.727-.236-.031-.363-.106-.357-.356a.37.37 0 0 0-.047-.194c-.339-.539-.765-.938-1.466-.887zm-20.755 1.366c.188.336.333.623.504.895.23.368.369.757.29 1.192-.04.21.058.317.203.446.19.17.395.358.5.582.098.207.207.22.374.175a1.6 1.6 0 0 0 1.153-1.359c.1-.843-.465-1.659-1.332-1.7-.063-.003-.142-.116-.175-.194-.102-.238-.147-.512-.29-.721-.328-.483-.797-.674-1.401-.7-.554-.025-1.303.593-1.386 1.073-.047.265-.192.385-.473.389-.55.007-1.316.58-1.353 1.165a3.31 3.31 0 0 0 .078 1.022c.035.142.014.232-.11.325-.361.275-.625.605-.755 1.067-.116.415.029.748.176 1.09.084.192.213.36.378.492.293.226.335.274.204.605-.212.523-.072.995.212 1.44.284.444.764.554 1.239.642.178.033.26.087.243.272-.062.706.265 1.212.878 1.509.336.162.7.333 1.113.125.305-.152.445-.06.531.27.009.05.026.097.051.141.477.68 1.073.991 1.992.655.234-.086.434-.138.625.137.177.247.4.458.655.624.332.22.676.457 1.103.457.471.004.943-.01 1.415-.006.574.004.525-.233.424-.655-.099-.406-.239-.801-.346-1.205-.08-.3-.143-.36-.45-.356a1.702 1.702 0 0 1-.28-.02c-.567-.088-1.138-.16-1.7-.278a9.482 9.482 0 0 1-1.431-.4 8.53 8.53 0 0 1-1.466-.704 7.435 7.435 0 0 1-1.33-1.037c-.305-.307-.518-.716-.752-1.091-.334-.538-.431-1.14-.421-1.761.007-.4.007-.389-.403-.401-.265-.009-.529-.085-.793-.131-.075-.013-.149-.033-.224-.04-.332-.027-.364-.094-.179-.387.13-.206.283-.401.39-.619.21-.427.544-.684.99-.822.054-.016.128-.106.123-.155-.048-.446.161-.807.402-1.14.224-.307.505-.574.804-.908zm22.54 30.659c.104.189.196.37.3.541.247.407.45.857.765 1.201.25.271.28.494.19.808-.12.417.139.946.517 1.165.339.197.698.239 1.078.215.195-.012.319-.101.285-.3-.041-.243.014-.416.16-.637.382-.58-.178-1.538-.88-1.492-.286.02-.372-.11-.483-.27-.099-.143-.156-.315-.248-.464-.239-.382-.489-.757-.73-1.138-.051-.083-.092-.175-.137-.262l.075-.06c.328.243.67.469.98.733.465.399.917.786 1.568.864.231.028.43.13.497.448.044.211.28.421.48.553.453.295.94.198 1.41.013.185-.073.234-.298.154-.47-.055-.115-.096-.273-.062-.388.093-.321-.015-.602-.186-.834-.326-.441-.906-.58-1.46-.175-.07.051-.208.083-.284.051-.505-.207-1.012-.415-1.496-.664-.232-.12-.54-.163-.682-.501.109.029.177.05.246.064.222.037.447.11.663.094.436-.03.816-.234 1.176-.474.153-.101.278-.108.439-.004.173.112.365.241.56.265.62.078 1.188 0 1.555-.614.194-.324.188-.407-.174-.548-.086-.033-.218-.107-.221-.166-.014-.33-.262-.478-.47-.654-.418-.356-1.29-.156-1.492.383-.093.248-.265.3-.477.324-.31.035-.63.026-.931.095-.532.123-1.046.335-1.58.42-.25.039-.561-.085-.79-.226-.218-.136-.364-.387-.534-.594-.984-1.197-1.96-2.399-2.948-3.592-.295-.355-.49-.877-1.116-.762a.263.263 0 0 1-.099-.022c-.39-.102-.78-.203-1.172-.296-.278-.066-.27-.04-.32.254-.068.393-.16.782-.273 1.164-.046.161-.033.257.102.37.906.753 1.807 1.512 2.702 2.277.52.445 1.028.904 1.53 1.366.221.2.363.472.4.767.055.438-.198.687-.615.604a1.175 1.175 0 0 1-.21-.086c-.39-.161-.753-.356-1.213-.121-.49.254-.717.855-.524 1.3.075.173.13.295.057.483-.095.242.02.386.288.395.277.01.555.008.833-.006.487-.025.825-.333.939-.813.015-.063.13-.138.204-.146.37-.04.744-.045 1.114-.087.37-.042.368-.054.54-.351zm-24.398.007.078-.03c.021.258.153.385.386.395.337.014.674.058 1.01.042.254-.011.374.076.438.31.09.331.473.66.777.672.304.012.604.008.906-.005.302-.012.396-.159.315-.462-.025-.094-.044-.23.005-.298.197-.276.114-.547.023-.82a.979.979 0 0 0-.47-.559c-.475-.274-.89-.076-1.3.118-.362.17-.735.042-.753-.35-.011-.247.061-.578.226-.739.774-.75 1.59-1.456 2.396-2.173.352-.313.714-.61 1.071-.918.31-.268.612-.547.929-.806.131-.106.133-.192.09-.346a7.766 7.766 0 0 1-.24-1.105c-.044-.356-.063-.378-.407-.284a11.78 11.78 0 0 1-1.377.315c-.265.04-.446.095-.62.334a43.117 43.117 0 0 1-1.754 2.226c-.67.81-1.378 1.588-2.077 2.375a.772.772 0 0 1-.252.158c-.433.206-.854.02-1.256-.093-.595-.169-1.184-.352-1.807-.35-.22 0-.33-.072-.419-.273-.255-.584-.789-.694-1.318-.533-.255.078-.52.244-.58.545-.045.22-.127.356-.353.398-.2.04-.274.185-.201.362.143.347.407.66.748.73.483.098 1.011.158 1.444-.238.069-.063.228-.084.32-.05.164.056.306.173.46.256.36.196.738.33 1.159.254.181-.032.36-.076.541-.116l.033.074c-.102.083-.187.191-.302.245-.63.297-1.265.583-1.901.867a.219.219 0 0 1-.157-.023 1.61 1.61 0 0 1-.259-.155c-.36-.272-.875-.136-1.175.11-.319.262-.418.732-.28 1.111a.314.314 0 0 1-.027.24c-.153.244-.065.474.216.533.075.011.149.03.22.055.634.27 1.458-.097 1.623-.787.04-.17.124-.248.3-.292.323-.079.678-.136.948-.312.487-.318.918-.723 1.38-1.08.126-.098.284-.153.428-.23l.04.067c-.066.095-.135.19-.197.287-.288.449-.579.897-.86 1.35-.156.249-.207.536-.657.498-.35-.03-.659.243-.832.61-.185.392-.04.716.125 1.055a.557.557 0 0 1 .07.305c-.048.301.036.434.344.444.195.007.39-.006.582-.038.624-.107 1.166-.887.9-1.494-.08-.184-.033-.346.099-.508.26-.32.504-.652.73-.997.177-.278.314-.583.471-.877zm-.66-21.745-.029-.071a3.494 3.494 0 0 0-.369.105c-.204.08-.39.203-.597.262a5.838 5.838 0 0 1-1.704.235.731.731 0 0 0-.459.203c-.356.335-.676.704-1.02 1.05-.779.783-1.552 1.575-2.14 2.515-.311.499-.576 1.025-.88 1.528a8.222 8.222 0 0 0-.866 2.053c-.072.257-.14.516-.204.776-.106.446-.21.894-.312 1.344-.039.174.043.218.2.16.431-.16.856-.339 1.295-.475.703-.22 1.316-.605 1.905-1.02 1.16-.818 2.067-1.885 2.89-3.025a38.62 38.62 0 0 0 1.229-1.811c.1-.156.11-.372.138-.564.016-.11-.032-.23-.022-.343.022-.235.089-.469.092-.703.007-.556.274-1.026.475-1.517.101-.244.251-.467.378-.7v-.002zm26.675 2.818-.05.01c0 .16-.021.325.005.481.022.18.075.354.158.515.164.283.377.537.55.816a17.12 17.12 0 0 0 2.058 2.687c.627.673 1.315 1.282 2.119 1.743.386.22.787.416 1.198.586.424.176.867.309 1.302.453.064.02.167.029.204-.007.038-.036.045-.138.038-.207a2.78 2.78 0 0 0-.07-.295c-.136-.613-.217-1.244-.418-1.835a15.771 15.771 0 0 0-.886-2.045c-.484-.952-1.041-1.863-1.788-2.642-.337-.352-.663-.714-.999-1.07-.346-.368-.71-.721-1.04-1.104-.239-.277-.5-.407-.876-.387-.615.036-1.204-.117-1.771-.352-.178-.074-.357-.153-.537-.216a.138.138 0 0 0-.129.035c-.017.03.007.092.027.132.213.44.476.864.632 1.321.145.443.186.922.273 1.383v-.002zm-24.138-.457-.077-.044c-.078.08-.16.153-.234.238-.095.106-.18.223-.275.328-.454.501-.947.956-1.542 1.29-.435.246-.331.744-.497 1.116-.134.3-.153.65-.23.976-.063.259-.142.514-.213.77-.105.38-.226.755-.306 1.14-.088.414-.138.838-.204 1.258-.099.606-.252 1.209-.287 1.82-.063 1.027-.165 2.063.134 3.074.023.078.06.218.084.216a.472.472 0 0 0 .271-.093c.224-.192.438-.396.64-.61.28-.3.573-.596.808-.93.516-.733 1.035-1.468 1.31-2.34.162-.512.35-1.016.52-1.524.074-.222.135-.449.196-.675.107-.403.21-.807.315-1.21.033-.13.065-.26.105-.388.074-.235.172-.484.005-.704-.39-.514-.54-1.131-.626-1.727-.082-.57-.123-1.18.089-1.755.024-.07.011-.15.014-.222v-.004zm20.739-.08-.083.02c.006.133.01.267.019.401.03.45.083.901.088 1.352.002.231-.065.466-.125.692-.08.305-.142.624-.29.896-.203.377-.363.738-.227 1.168.05.16.112.317.153.479.084.34.148.687.239 1.026.084.314.193.623.29.934.136.43.235.876.413 1.287.411.953.894 1.872 1.587 2.657.379.43.787.836 1.195 1.24.183.182.364.143.403-.063.06-.305.157-.613.158-.92 0-.75-.018-1.502-.078-2.25-.045-.577-.162-1.149-.248-1.723-.063-.422-.128-.845-.195-1.267-.006-.04-.035-.077-.045-.117-.102-.39-.204-.78-.297-1.169-.077-.317-.137-.638-.22-.953-.105-.404-.23-.802-.338-1.205-.067-.25-.149-.487-.394-.618-.644-.341-1.162-.829-1.623-1.383-.132-.154-.255-.319-.382-.48v-.004zM17.34 16.13l.078.016c.124-.134.25-.266.371-.404.455-.52.76-1.113.792-1.813.023-.39.016-.78-.02-1.169a3.364 3.364 0 0 0-.22-.85 6.992 6.992 0 0 0-.46-.943c-.25-.435-.501-.874-.8-1.276-.536-.725-1.212-1.315-1.937-1.848-.56-.415-1.121-.835-1.712-1.21a20.096 20.096 0 0 0-1.65-.923c-.407-.21-.835-.384-1.262-.556-.44-.176-.88-.362-1.335-.485-.439-.12-.898-.163-1.348-.242-.117-.02-.231-.05-.348-.073-.084-.014-.17-.016-.255-.024 0 .113-.031.239.008.336.095.214.202.423.32.625.424.784.952 1.486 1.653 2.046.663.531 1.334 1.055 1.998 1.587.427.342.845.696 1.274 1.036.064.05.164.054.248.08.003-.083 0-.166-.01-.248-.08-.399-.007-.773.146-1.156.105.054.175.107.255.127.686.176 1.246.6 1.808.987.443.308.807.736 1.183 1.13a5.103 5.103 0 0 1 1.417 3.052c.012.117.01.237.032.353.105.553-.018 1.078-.184 1.6a1.6 1.6 0 0 0-.042.244zm18.948-5.96c.966-.782 1.864-1.516 2.766-2.242.362-.292.762-.545 1.091-.87a7.448 7.448 0 0 0 1.661-2.475.298.298 0 0 0 0-.23c-.022-.038-.14-.04-.209-.025-.698.152-1.398.296-2.09.476-.432.106-.853.25-1.26.43-.688.317-1.37.656-2.026 1.032-.612.352-1.2.751-1.784 1.154-.337.241-.659.502-.964.78-.446.395-.918.77-1.301 1.22-.408.485-.736 1.04-1.071 1.581a3.407 3.407 0 0 0-.4.864c-.114.43-.196.867-.243 1.31-.108.934.097 1.789.742 2.505.141.156.306.292.46.437a.172.172 0 0 0 .034-.148c-.095-.373-.266-.746-.269-1.12-.005-.543.102-1.088.18-1.63a1.9 1.9 0 0 1 .178-.597c.215-.42.45-.828.707-1.224.45-.682 1.009-1.276 1.703-1.709.596-.372 1.24-.67 1.858-1.01.153-.084.208-.032.214.111.013.312.017.624.022.937.003.13 0 .26 0 .444zm9.789 13.585c.638-.085 1.267-.153 1.89-.254.409-.068.403-.102.235-.43-.286-.566-.745-.981-1.24-1.34a15.986 15.986 0 0 0-1.792-1.117c-.608-.327-1.253-.585-1.887-.869-.181-.081-.393-.115-.55-.228-.244-.177-.472-.119-.724-.055-.422.108-.847.227-1.278.282-.342.044-.694-.003-1.042-.003a.715.715 0 0 0-.183.047c.024.057.055.11.092.16.479.497.931 1.015 1.223 1.65.132.285.223.589.337.882.02.051.05.119.094.138.162.068.33.124.498.176.255.08.517.15.773.23.503.158.996.367 1.51.469.674.13 1.362.177 2.045.262h-.001zm-43.281-.007c.546-.058 1.06-.099 1.57-.174.382-.056.759-.15 1.136-.238.285-.067.568-.147.847-.232.32-.097.635-.203.95-.31.23-.078.48-.124.586-.39.129-.326.213-.681.404-.966.349-.52.761-.996 1.146-1.492.039-.05.074-.101.11-.15-.067-.018-.133-.054-.2-.054-.34 0-.684.047-1.016 0-.456-.065-.9-.207-1.351-.3-.16-.033-.347-.065-.493-.015-.408.14-.802.322-1.2.492-.354.152-.713.294-1.056.468-.38.193-.742.419-1.112.628-.722.407-1.389.886-1.92 1.532-.139.168-.26.35-.395.524-.172.22-.12.377.166.421.616.095 1.234.174 1.83.256h-.002zM25.362 4.183c.039-.156.046-.323.121-.45.159-.266.336-.52.53-.762.178-.222.222-.47.133-.714-.078-.214-.285-.3-.518-.294-.067 0-.135-.01-.204-.008-.177.005-.314-.014-.218-.254a.284.284 0 0 0-.022-.22 14.17 14.17 0 0 0-.564-.86c-.027-.04-.188-.048-.21-.018-.197.28-.38.572-.545.873-.066.126-.003.356-.09.427-.102.084-.306.045-.459.065-.408.05-.62.475-.397.823.204.317.436.614.637.932.075.118.094.27.139.411.445-.187.195-.647.41-.971.06.123.122.194.125.267.011.33.003.66-.245.92a.393.393 0 0 1-.116.093c-.494.215-1.003.334-1.542.203a.896.896 0 0 1-.192-.098l.086-.026c.037-.133.12-.273.102-.399-.05-.37.018-.715.142-1.059.086-.238-.027-.437-.25-.559-.285-.156-.495-.068-.717.22-.114-.37-.279-.65-.639-.7-.315-.044-.635-.051-1.017-.083.24.382.408.692.617.973.56.758 1.065 1.548 1.459 2.404.088.194.207.221.408.173.293-.07.599-.152.895-.139.758.033 1.512.12 2.27.175.412.03.827.033 1.241.055.165.009.271-.048.337-.203.082-.212.18-.418.294-.615.3-.486.612-.965.929-1.44.184-.279.382-.549.571-.825.106-.152.204-.309.31-.464l-.065-.094c-.322.034-.647.056-.968.108-.294.047-.523.183-.538.529 0 .045-.056.087-.047.074-.174-.09-.318-.227-.464-.228-.411-.003-.675.377-.51.754.137.318.153.631.141.96 0 .058.04.117.062.175.064-.031.153-.046.186-.097.07-.122.13-.25.18-.38.199.319.018.744-.344.805a2.723 2.723 0 0 1-.686.05c-.408-.037-.854-.056-1.116-.438a2.039 2.039 0 0 1-.276-.687c-.05-.21.051-.3.272-.34-.072.438.05.777.362.956zM8.833 16.793c-.024-.037-.032-.067-.05-.076a4.958 4.958 0 0 1-1.985-1.618c-.051-.071-.204-.097-.312-.097-.194 0-.387.04-.58.058-.749.07-1.498.137-2.247.208a.906.906 0 0 0-.147.041c-.366.097-.738.177-1.098.293-.591.191-1.177.4-1.76.616-.099.036-.24.137-.102.267.148.136.311.256.486.356.468.275.93.569 1.42.795.448.206.928.346 1.4.49a9.08 9.08 0 0 0 1.199.3c.397.064.831.254 1.163-.185.106-.138.25-.247.384-.36.612-.519 1.281-.921 2.098-1.024a.458.458 0 0 0 .131-.064zm31.35-.006c.079.038.114.068.153.07.386.023.724.18 1.07.344.526.248 1 .593 1.4 1.016.108.115.272.273.397.261a15.734 15.734 0 0 0 1.619-.245c.313-.069.62-.162.918-.277.423-.152.861-.288 1.253-.503.51-.28.976-.631 1.464-.946.14-.09.093-.172-.008-.23a3.445 3.445 0 0 0-.582-.286c-.452-.152-.912-.278-1.37-.416-.548-.166-1.1-.315-1.677-.338-.076-.003-.153-.019-.227-.026-.708-.063-1.414-.132-2.122-.184a.35.35 0 0 0-.245.12c-.39.454-.776.909-1.317 1.2-.237.125-.457.274-.727.44zM13.048 11.48l.066-.068c-.04-.087-.11-.173-.117-.263-.03-.391-.226-.64-.543-.88-.975-.738-1.915-1.52-2.868-2.287-.688-.547-1.496-.87-2.315-1.157-.432-.152-.902-.195-1.355-.283a2.755 2.755 0 0 0-.528-.07c-.067 0-.19.101-.191.16-.01.161.016.322.076.472.218.488.414.995.706 1.437.296.45.65.86 1.053 1.219.782.69 1.613 1.325 2.427 1.978.058.047.146.055.22.08.014-.07.056-.147.04-.21-.105-.414-.14-.818-.014-1.24.062-.209.138-.302.346-.255.35.082.7.168 1.047.26.59.157 1.083.49 1.56.854.122.096.26.171.39.253zm22.956-.037.351-.225c.34-.215.674-.443 1.024-.642.468-.266.995-.355 1.515-.462.313-.064.443.014.449.325.008.388-.007.777-.007 1.165.006.071.02.14.04.21.065-.026.14-.038.193-.08.64-.508 1.293-1.003 1.91-1.538.487-.424.968-.867 1.376-1.364.315-.384.529-.856.75-1.307.12-.245.173-.526.238-.795.03-.13 0-.283-.181-.26-.486.064-.972.13-1.45.23-.286.06-.562.176-.836.28-.337.126-.678.246-1 .406-.784.389-1.439.965-2.119 1.505-.632.502-1.242 1.033-1.88 1.528-.335.261-.275.656-.41.983 0 .003.011.012.037.04zm-32.722-.858c-.229 0-.459-.005-.687.003-.08.011-.16.032-.235.06.022.084.028.178.07.252.422.727 1.007 1.317 1.665 1.819.673.514 1.394.965 2.103 1.433.187.124.393.267.627.04.1-.089.22-.152.35-.185.413-.11.828-.22 1.249-.294.226-.036.457-.036.683 0 .44.065.876.163 1.314.246.033.007.088.026.096.014.036-.051.095-.129.077-.165-.23-.482-.467-.96-.713-1.436a.56.56 0 0 0-.208-.194 1.584 1.584 0 0 0-.283-.11l-1.154-.415a26.04 26.04 0 0 0-.616-.21c-.317-.106-.63-.224-.952-.306-.373-.097-.758-.152-1.132-.247-.74-.19-1.483-.341-2.254-.305zm35.128 3.322.024.072c.11-.022.22-.04.329-.067.122-.03.242-.09.366-.096.636-.034 1.27-.243 1.911-.024.33.113.685.176.99.335.305.16.541.219.833.012.233-.165.501-.279.736-.441.346-.239.67-.508 1.014-.75.81-.565 1.505-1.238 2.017-2.087.124-.203.096-.272-.142-.273-.518 0-1.038-.018-1.554.02-.411.03-.82.118-1.223.203-.377.082-.747.196-1.122.296-.51.138-1.02.254-1.52.421-.595.2-1.176.44-1.76.671-.058.023-.102.102-.133.163-.106.226-.193.461-.306.684-.144.293-.306.576-.46.861zm-6.479 33.996c.083-.655-.323-1.108-.846-1.495-.097-.072-.2-.093-.244.08-.051.19-.09.394-.192.556-.306.493-.714.836-1.356.738-.466-.071-.847-.318-1.214-.587-.861-.627-1.465-1.485-2.09-2.323-.058-.076-.16-.12-.241-.18-.037.087-.107.173-.102.258.027.936.061 1.872.109 2.807a.647.647 0 0 0 .153.366c.31.352.629.7.968 1.026.435.419.99.663 1.56.776.716.141 1.444.17 2.167-.125.723-.294 1.318-1.042 1.328-1.897zm-8.644-3.282c-.097.05-.126.059-.139.077-.324.42-.663.831-.964 1.266-.398.569-.909 1.024-1.473 1.402-.54.362-1.13.68-1.8.229-.38-.254-.663-.565-.696-1.048-.011-.178-.125-.24-.275-.146-.954.605-1.088 1.75-.537 2.561.611.898 1.522 1.148 2.556 1.028.343-.034.68-.105 1.008-.212.35-.114.682-.275.988-.48.329-.228.615-.524.897-.812.272-.279.524-.577.431-1.022-.024-.12.014-.251.025-.377.043-.526.112-1.05.122-1.575.005-.284-.088-.57-.143-.892zm20.206-9.454c-.324-.383-.657-.73-.932-1.117a21.91 21.91 0 0 1-.978-1.535c-.338-.57-.66-1.147-.97-1.733-.386-.734-.734-1.489-1.13-2.218-.337-.622-.714-1.223-1.081-1.829-.037-.06-.13-.087-.197-.13-.034.06-.09.118-.102.181-.029.203-.08.333-.322.2-.051-.028-.169-.02-.204.019-.035.038-.04.145-.022.211.024.087.1.16.124.246.133.467.25.938.387 1.403.124.418.24.842.408 1.243.326.771.672 1.535 1.038 2.29.44.91.979 1.758 1.822 2.353.287.203.61.35.952.435.331.077.691.034 1.039.035a.489.489 0 0 0 .168-.054zm-38.007-.05.006.062.481.041a2.577 2.577 0 0 0 1.963-.645c.81-.7 1.322-1.613 1.784-2.552.294-.6.518-1.234.77-1.854.07-.175.13-.355.195-.535.162-.448.332-.894.482-1.347.121-.363.22-.733.323-1.102.017-.06.031-.149 0-.187a.192.192 0 0 0-.18-.036c-.259.115-.376.018-.424-.237-.01-.057-.074-.102-.114-.153a.865.865 0 0 0-.153.144 24.935 24.935 0 0 0-1.068 1.827c-.158.305-.29.622-.444.928-.15.299-.306.592-.467.885-.263.486-.526.972-.797 1.454-.196.348-.391.698-.612 1.03a71.263 71.263 0 0 1-1.34 1.95c-.096.136-.267.22-.405.327zm17.94 6.401-.113-.037-.663.868a5.643 5.643 0 0 1-1.682 1.439c-.44.254-.914.465-1.456.432-.42-.026-.745-.326-.76-.75-.006-.168.005-.337.007-.508.003-.17-.05-.216-.216-.135-.55.268-.915.656-1.11 1.264-.156.489 0 .89.175 1.28.322.718.997.907 1.712.957.557.04 1.084-.115 1.602-.31.484-.182.963-.379 1.333-.746.306-.301.56-.651.853-.962.13-.136.163-.267.161-.447-.006-.675-.043-1.354.153-2.016.03-.101.004-.22.004-.33v.001zm2.302-.014-.102.047c0 .076-.006.152 0 .23.054.578.14 1.156.153 1.736.011.387.081.685.322 1.028.746 1.061 1.823 1.519 3.008 1.765a2.33 2.33 0 0 0 1.807-.35c.182-.124.375-.288.463-.48.126-.274.186-.588.229-.891.102-.726-.466-1.58-1.166-1.778-.035-.01-.13.067-.138.114-.017.097.005.203.011.305a.99.99 0 0 1-.27.765c-.325.335-.765.292-1.143.152-.434-.159-.837-.411-1.243-.64-.552-.313-.969-.777-1.356-1.267-.19-.247-.382-.493-.575-.737v.002zm-3.16-22.983a.37.37 0 0 0-.12.091c-.519.72-1.313.83-2.102.933-.24.032-.323.146-.283.35.112.567.22 1.137.372 1.694.125.458.311.9.473 1.348.03.066.066.13.105.192.528-.237 1.052-.449 1.554-.703.671-.34 1.178-.867 1.554-1.513.191-.328.16-.434-.127-.709-.115-.11-.252-.203-.35-.323-.36-.441-.706-.891-1.076-1.362v.002zm5.528 4.577c.03-.157.04-.292.084-.416.161-.457.377-.897.49-1.364.118-.493.141-1.01.21-1.516.023-.175-.042-.216-.221-.244-.387-.058-.796-.111-1.14-.279-.4-.194-.74-.508-1.117-.778-.09.147-.208.337-.323.53-.323.535-.772.952-1.245 1.35-.051.045-.108.157-.087.21.065.17.14.346.255.482.299.35.596.707.94 1.008.608.525 1.358.777 2.154 1.015v.002zM29 21.335c.112.006.23.031.34.014.71-.101 1.415-.226 2.124-.325.7-.098 1.325-.389 1.91-.759.742-.47 1.198-1.138 1.262-2.036.018-.254-.056-.304-.312-.254-.189.038-.38.064-.571.079-.167.012-.337-.011-.504-.006-.373.012-.38-.008-.278-.345a1.13 1.13 0 0 0 .04-.544c-.014-.067-.233-.083-.352-.137-.207-.093-.25.007-.264.188-.027.327-.047.657-.115.975-.039.178-.149.352-.263.5-.456.591-1.126.762-1.817.863-.258.039-.526.004-.787.027-.07.006-.181.093-.191.156-.082.517-.145 1.034-.222 1.602v.002zm-8.97.027c-.07-.596-.136-1.111-.19-1.626-.017-.17-.105-.183-.243-.165-.585.076-1.16-.03-1.692-.236-.939-.36-1.326-1.102-1.294-2.125a1.776 1.776 0 0 0-.035-.277c-.195.078-.357.127-.5.207a.262.262 0 0 0-.115.203c.024.156.062.309.114.458.061.206-.014.286-.224.268-.395-.035-.79-.063-1.184-.1-.17-.015-.284-.008-.248.221.04.262.053.515.15.78.267.731.82 1.151 1.458 1.495.304.158.62.29.947.395.374.123.753.226 1.138.31.282.06.567.1.853.123.357.03.715.045 1.066.067v.002zm15.735-3.054-.062-.017c0-.101.005-.203 0-.304-.019-.301-.153-.423-.433-.404-.234.016-.333.163-.338.439a2.99 2.99 0 0 1-.376 1.422c-.356.635-.957 1.005-1.563 1.362a2.156 2.156 0 0 1-.436.199c-.285.09-.575.169-.866.237-.466.108-.932.228-1.404.299-.357.054-.727.042-1.092.054-.364.012-.416.066-.497.428a7.414 7.414 0 0 1-.24.843c-.11.308-.113.314.222.295.937-.05 1.855-.203 2.739-.524.455-.166.909-.337 1.353-.528a5.385 5.385 0 0 0 2.011-1.487c.209-.247.44-.503.554-.796.187-.488.29-1.01.428-1.518zm-15.677 4.9.012-.058c.118.007.24.034.353.012.057-.01.147-.125.135-.167a25.969 25.969 0 0 0-.408-1.317.192.192 0 0 0-.153-.092c-.95.01-1.88-.09-2.799-.365-.534-.16-1.052-.335-1.53-.617-.44-.259-.839-.576-1.114-1.008-.32-.502-.532-1.046-.491-1.66a.327.327 0 0 0-.208-.334.331.331 0 0 0-.137-.022c-.2 0-.389.041-.4.289-.027.559-.009 1.117.21 1.634.231.542.542 1.046.976 1.46a5.8 5.8 0 0 0 1.619 1.11c.48.216.98.393 1.478.572.246.083.497.15.752.203.568.124 1.137.24 1.706.36zm28.136 2.744c-.065-.048-.09-.082-.115-.083-.612-.033-1.151-.314-1.677-.574-.638-.316-1.275-.673-1.822-1.118-.597-.487-1.325-.555-1.988-.821-.278-.11-.574-.179-.852-.29-.333-.134-.656-.147-1.047-.004.33.349.621.66.918.968.363.373.728.742 1.097 1.109.194.192.366.436.6.55.493.236 1.003.434 1.526.59.437.128.884.217 1.336.268.332.04.662-.035.997-.117.371-.09.68-.26 1.027-.477v-.002zM8.291 23.104a6.051 6.051 0 0 0-.018-.092c-.175-.017-.357-.07-.524-.044-.238.035-.467.127-.699.195-.475.139-.951.274-1.424.42-.23.071-.473.133-.678.254-.442.26-.858.559-1.294.831-.85.528-1.706 1.046-2.72 1.21-.024.004-.042.044-.064.066.02.032.026.06.045.074.424.32.926.447 1.435.525.286.04.577.034.86-.017.38-.072.756-.17 1.123-.292.39-.122.779-.26 1.157-.418.19-.077.363-.19.51-.333.352-.361.667-.758 1.017-1.122.414-.43.851-.839 1.274-1.257zM23.877 41.03a.662.662 0 0 0-.066.153c-.081.626-.204 1.251-.227 1.88-.027.665.018 1.334.067 2 .03.424.125.844.191 1.267.005.016.01.032.018.047.105.308.204.618.316.925.055.155.125.304.194.457.035.066.074.131.117.193.066-.06.167-.106.193-.18.197-.548.413-1.093.557-1.657.112-.445.156-.914.184-1.372a15.03 15.03 0 0 0 .022-1.676c-.031-.634-.117-1.266-.184-1.898-.005-.04-.051-.076-.09-.135-.157.241-.295.457-.439.673-.143.216-.268.224-.424.008-.15-.208-.276-.434-.429-.685zm-7.652-13.182c.007.085.019.17.035.254.102.388.19.78.313 1.162.12.372.266.737.415 1.1.09.218.218.232.37.05.118-.131.226-.272.321-.42.266-.454.546-.902.765-1.377.204-.436.346-.9.492-1.36.1-.31.146-.636.239-.948.073-.244.027-.361-.214-.42-.491-.122-.886-.402-1.236-.755a2.324 2.324 0 0 0-.197-.161c-.055.081-.131.156-.162.245-.135.401-.227.819-.394 1.206-.17.4-.41.77-.617 1.153-.054.102-.1.207-.13.27zm15.268-2.956c-.398.562-.898.864-1.497 1.016-.193.051-.238.163-.193.341.065.254.12.508.186.762a6.2 6.2 0 0 0 .193.646c.155.407.329.802.496 1.202a5.76 5.76 0 0 0 1.02 1.59c.101.117.203.137.277-.011.126-.25.235-.508.352-.762.193-.424.326-.864.349-1.33a.64.64 0 0 1 .081-.264c.089-.163.057-.288-.044-.441-.334-.503-.644-1.02-.808-1.608-.056-.2-.115-.4-.184-.596-.062-.168-.139-.332-.227-.545zm-7.966 4.172c-.028.099-.058.157-.06.217-.005.254-.013.504 0 .755.065 1.427.075 2.862.514 4.243.112.353.255.697.393 1.041.065.162.204.135.282.032.102-.14.181-.296.235-.46.086-.244.154-.493.204-.746.121-.652.233-1.305.336-1.96.032-.244.05-.49.051-.735.02-.69.038-1.381.047-2.072 0-.071-.059-.143-.09-.214a1.389 1.389 0 0 0-.187.146c-.18.199-.353.403-.527.606-.142.165-.265.17-.415-.007-.243-.28-.501-.541-.783-.846zm.404 6.052a1.189 1.189 0 0 0-.1.183c-.058.217-.118.435-.165.655-.063.292-.167.589-.16.88.013.624.084 1.247.138 1.869.016.176.043.351.08.524.085.403.158.81.274 1.202.096.327.24.64.38.952.058.132.188.132.263.021.1-.145.177-.303.232-.47.091-.283.168-.571.23-.863.112-.533.239-1.067.305-1.606.069-.578.073-1.163.102-1.745a.66.66 0 0 0-.02-.175c-.085-.384-.17-.769-.264-1.151-.015-.062-.077-.152-.124-.157-.048-.004-.126.064-.166.119-.094.126-.164.27-.26.393-.102.133-.216.152-.322-.014-.125-.194-.261-.382-.423-.617zm.553-10.05c.118-.07.21-.113.288-.172.711-.532 1.24-1.222 1.695-1.971.03-.048-.015-.183-.067-.23-.102-.093-.24-.148-.357-.226-.577-.389-1.087-.836-1.366-1.497-.03-.07-.135-.107-.204-.16-.036.06-.075.118-.105.18-.022.044-.018.106-.047.142-.306.37-.598.753-.933 1.095-.17.173-.411.289-.637.394-.189.09-.25.188-.143.377.37.649.855 1.205 1.403 1.707.142.134.31.24.473.361zm7.257-10.781.091.004c.287-.267.52-.612.943-.687.235-.04.344-.177.4-.398.184-.724.961-1.386 1.704-1.286.522.07.648-.104.778-.526.21-.681.403-1.358.408-2.077 0-.206-.073-.3-.274-.2-.357.177-.714.36-1.06.555a5.682 5.682 0 0 0-1.474 1.18c-.494.55-.912 1.145-1.161 1.847-.096.267-.215.53-.277.805-.06.256-.055.523-.078.785v-.002zm-14.451.13c.01-.139.036-.222.019-.294-.1-.415-.186-.836-.323-1.24-.123-.362-.255-.742-.473-1.049-.362-.494-.76-.96-1.191-1.395-.58-.596-1.29-1.01-2.057-1.326-.232-.095-.288-.05-.274.197.024.432-.02.864.166 1.289.174.393.25.828.39 1.238.02.058.166.113.244.102.492-.066.946.018 1.35.308.328.236.633.523.714.919.061.294.215.38.455.457.174.06.335.15.476.267.167.139.302.312.504.526zm17.357 9.33c.014.072.011.102.024.12.479.653.846 1.38 1.511 1.904.46.363.925.695 1.462.93.117.05.2.067.248-.093.315-1.044.117-2.052-.244-3.035-.153-.422-.41-.808-.625-1.207a.166.166 0 0 0-.114-.083c-.033 0-.08.051-.102.088-.059.108-.106.223-.161.333-.345.695-.924 1.006-1.686 1.016-.097-.001-.194.016-.313.027zm-22.489-1.54c-.11.165-.19.26-.244.37-.211.428-.44.85-.612 1.295-.136.353-.23.72-.28 1.094-.046.34-.024.693-.004 1.039.018.2.063.397.136.585.02.055.162.117.226.098.672-.198 1.211-.637 1.697-1.1.439-.42.759-.966 1.121-1.46.073-.102.099-.233.167-.401-1.138.07-1.83-.448-2.207-1.52zm2.848 6.316c.886-.555 1.365-1.341 1.738-2.194.211-.482.34-1 .52-1.546-.121.001-.242.01-.363.025a2.572 2.572 0 0 1-.846.028c-.485-.061-.8-.32-1.09-.66-.09-.105-.177-.212-.306-.365-.082.394-.18.73-.216 1.072-.051.478-.076.958-.074 1.439.003.614.073 1.22.392 1.768.085.139.161.28.245.433zm19.297-4.692c-.06.098-.126.193-.196.284-.301.356-.6.693-1.133.723-.255.014-.493.078-.745-.013a.806.806 0 0 0-.326-.043c-.04 0-.117.102-.108.143.046.211.11.419.19.62.22.52.43 1.047.694 1.544.313.591.739 1.098 1.356 1.428.32-.465.537-.982.58-1.517.088-1.041.067-2.087-.31-3.17h-.002zm.845 10.174.048-.013c-.013-.091-.02-.184-.04-.273-.106-.44-.215-.879-.322-1.32l-.196-.803c-.079-.315-.159-.63-.24-.944-.1-.38-.215-.758-.298-1.143-.078-.36-.105-.73-.473-.948-.136-.08-.24-.21-.365-.31a.981.981 0 0 0-.19-.094 1.456 1.456 0 0 0-.087.2c-.097.356-.21.712-.274 1.072-.036.198 0 .413.023.619.01.097.068.189.094.286.137.5.235 1.016.414 1.498.198.515.43 1.015.695 1.499.274.506.663.942 1.135 1.273.055.04.152.025.23.034a.92.92 0 0 0-.01-.212c-.037-.142-.093-.28-.142-.422l-.002.001zm-19.173-5.874c-.085.04-.162.061-.217.107-.194.16-.383.327-.567.5a.476.476 0 0 0-.144.202c-.091.35-.168.703-.25 1.055-.078.334-.149.67-.24 1.002-.084.304-.21.6-.283.908-.091.39-.145.791-.22 1.186-.017.09-.056.178-.077.268-.09.381-.178.762-.266 1.145a.083.083 0 0 0-.003.025c.005.135.056.2.19.111.114-.072.223-.15.328-.236.746-.632 1.102-1.506 1.463-2.374.097-.232.158-.478.235-.718.102-.31.213-.617.292-.932.102-.416.192-.83.015-1.263-.121-.3-.165-.63-.256-.986zm10.236-1.092c-.068-.077-.12-.164-.197-.213-.102-.067-.238-.09-.342-.157-.415-.267-.78-.586-1.027-1.024-.03-.055-.119-.085-.187-.102-.017-.004-.058.086-.087.133-.037.071-.08.139-.127.203-.348.407-.728.765-1.246.956-.067.025-.133.199-.112.282.06.241.126.495.255.702.376.595.78 1.171 1.183 1.748.14.2.25.203.39 0a54 54 0 0 0 1.202-1.83c.128-.2.19-.442.295-.698zM22.107 8.781c.953-.005 1.536.386 1.754 1.127.08.271.007.347-.289.32-.27-.022-.541-.054-.81-.042-.33.015-.672.06-.867.378-.051.084-.024.217-.032.327.085.004.17.002.255-.007.204-.036.408-.124.609-.114.368.016.734.087 1.1.137.367.05.74-.072.838-.292.133-.297.11-.907-.094-1.083a5.361 5.361 0 0 0-.758-.562c-.333-.198-.691-.356-1.039-.528-.468-.237-.634-.694-.755-1.143-.114-.426-.351-.71-.786-.71-.46-.003-.872.077-1.173.494-.31.43-.259.89-.148 1.335.105.428.146.412.56.223.314-.144.673-.188.959-.021.203.123.44.18.676.16zM8.923 13.959c-.426.04-.735.038-1.029.105-.293.067-.582.203-.873.31-.172.06-.244.228-.14.382.157.23.307.47.5.665.649.657 1.421 1.118 2.327 1.332.063.015.167-.039.22-.092a6.45 6.45 0 0 0 .496-.559c.082-.105.267-.167.16-.375-.201-.39-.201-.787.005-1.185.114-.22.037-.333-.207-.356-.135-.012-.271-.02-.405-.042-.39-.064-.778-.136-1.054-.185zm31.312-.013c-.507.08-1.012.168-1.52.234-.31.04-.331.045-.265.355.01.059.027.115.05.17a.98.98 0 0 1-.003.901c-.074.153-.095.3.045.443.194.196.38.401.558.613.083.102.149.13.278.075.337-.143.692-.249 1.024-.404.756-.352 1.331-.911 1.764-1.619.08-.13.065-.25-.087-.312-.587-.245-1.173-.488-1.844-.456zM25.901 37.244h-.083c-.03.104-.054.21-.07.318-.052.555-.091 1.11-.14 1.664a1.806 1.806 0 0 1-.059.219c-.075.344-.153.687-.22 1.032-.01.051.027.112.052.166.152.378.436.648.743.91.623.528 1.298.774 2.112.523a.95.95 0 0 0 .683-.804c.013-.152.014-.305.004-.457-.008-.25-.082-.305-.317-.222-.165.056-.325.16-.492.177-.46.043-1.173-.477-1.413-.998-.255-.555-.519-1.106-.57-1.731-.016-.206-.083-.41-.136-.61a.963.963 0 0 0-.094-.187zm-2.62-.045-.132-.008c-.033.072-.06.147-.08.223-.066.321-.095.653-.194.965-.135.42-.313.827-.49 1.231-.226.52-.582.931-1.127 1.118-.181.062-.408.005-.612-.023-.105-.015-.2-.09-.303-.127-.139-.05-.235 0-.268.145a1.199 1.199 0 0 0 .184.965c.247.359.65.524 1.078.504.776-.035 1.427-.373 1.93-.962.168-.196.385-.452.377-.673-.022-.593-.153-1.182-.24-1.773-.044-.305-.092-.614-.118-.923-.02-.222-.004-.442-.004-.662zm-8.14-19.428c.127 0 .255-.004.38 0 .168.006.247-.054.19-.228-.064-.198-.131-.396-.198-.593a1.251 1.251 0 0 0-.702-.759c-.223-.097-.199-.222-.187-.398.016-.24.007-.482.006-.724 0-.326-.233-.546-.37-.813-.112-.213-.22-.146-.332-.037-.353.34-.692.739-.678 1.226.01.413-.134.516-.47.638-.527.192-.748.7-1.01 1.148-.015.027.056.145.103.16.12.034.262.004.375.05.492.203.933.119 1.368-.17.075-.05.28-.014.353.057.331.324.705.492 1.171.443zm18.073-.085.069.074c.133 0 .267-.007.4 0 .535.033 1.033-.023 1.408-.473.102-.119.225-.077.365-.004.212.11.45.233.678.237.332.007.667-.08.996-.147.04-.008.099-.161.074-.203-.158-.267-.303-.555-.519-.77-.187-.187-.45-.318-.703-.413-.162-.062-.243-.096-.22-.285.091-.74-.415-1.174-.858-1.682-.145.245-.303.442-.383.666-.14.388-.357.78-.114 1.216.025.044-.062.181-.129.239-.163.14-.404.223-.51.393-.218.364-.372.766-.554 1.152zm2.458-5.608c.544.257.87.583.997 1.085.014.05.085.101.141.129.379.187.834.203 1.161.516.03.029.2-.02.232-.075.2-.348.408-.696.56-1.067.27-.64.394-1.332.362-2.025-.008-.179-.074-.265-.24-.234-.322.059-.66.093-.954.22a9.36 9.36 0 0 0-1.277.696c-.327.21-.62.474-.983.755zM9.925 10.994a3.805 3.805 0 0 0 .492 1.953c.133.242.283.476.394.728.087.196.215.19.34.095.248-.186.52-.291.816-.378.168-.051.373-.193.43-.344.139-.36.38-.607.677-.822.202-.145.199-.249-.015-.398-.584-.407-1.118-.897-1.82-1.112-.352-.107-.702-.216-1.057-.31-.22-.059-.29.05-.255.263.01.108.009.217-.001.325h-.001zM21.097 23.61c.079.308.153.617.236.923.108.386.223.77.34 1.154.102.336.204.671.322 1.003a.209.209 0 0 0 .167.101c.535-.04 1-.263 1.406-.6a3.58 3.58 0 0 0 .524-.545c.102-.132.228-.303.058-.475-.135-.137-.292-.254-.434-.385-.536-.493-1.01-1.034-1.354-1.683-.035-.066-.178-.133-.248-.114-.268.07-.524.183-.788.267-.184.056-.284.148-.229.354zm5.737-.665a1.067 1.067 0 0 0-.183.165c-.179.254-.344.515-.52.769-.35.501-.786.918-1.266 1.293-.051.04-.091.19-.059.236.153.22.303.457.51.622.302.237.629.441.974.61.2.102.445.111.672.152.03.005.09-.054.102-.094.061-.19.115-.382.163-.575.077-.31.133-.624.223-.928.15-.505.329-1 .476-1.506.03-.102.007-.301-.053-.33-.323-.155-.665-.27-1.039-.414zM8.87 19.463l.01.05c.47-.083.942-.152 1.407-.256.237-.05.23-.107.058-.293a5.089 5.089 0 0 1-.42-.53c-.251-.358-.205-.768-.191-1.175 0-.068-.07-.2-.108-.2-.312 0-.64-.03-.933.05-.438.125-.88.286-1.27.518-.437.26-.822.61-1.216.938-.042.034-.027.229.021.262.43.291.927.435 1.428.535.394.08.808.071 1.214.101zm16.423 15.164c.006.025.02.101.039.172.097.389.19.778.295 1.165.063.233.11.479.22.69.282.545.589 1.08 1.18 1.363.058.02.118.035.18.043.005-.063.034-.136.012-.188-.07-.168-.176-.322-.235-.493-.164-.475-.346-.947-.454-1.434-.12-.541-.177-1.098-.245-1.65-.056-.452-.116-.907-.127-1.361-.023-1.057-.039-2.114.166-3.161.102-.529.146-1.067.245-1.599.057-.305.174-.593.26-.89.039-.136 0-.271-.154-.244-.11.02-.235.13-.291.233a4.577 4.577 0 0 0-.34.778c-.081.248-.269.445-.256.745.034.762.034 1.524.016 2.287a12.948 12.948 0 0 1-.326 2.632c-.066.285-.117.575-.185.912zm-2.023-4.888h-.024c0-.228-.012-.457.003-.685.02-.304.02-.57-.178-.85-.225-.318-.357-.702-.51-1.068-.073-.173-.188-.162-.26-.055-.062.092-.067.242-.05.36.022.171.101.335.131.505.076.395.147.792.204 1.19.114.767.27 1.532.313 2.303.048.858.036 1.724-.123 2.58-.064.347-.045.71-.106 1.057-.07.395-.204.779-.277 1.173a5.82 5.82 0 0 1-.522 1.507c-.042.084-.018.2-.026.301l.222-.109c.023-.011.044-.026.066-.038.62-.332.922-.898 1.129-1.53.093-.288.157-.585.255-.87.187-.536.169-1.077.076-1.626-.113-.664-.264-1.324-.315-1.993-.05-.71-.008-1.433-.008-2.152zm15.214-10.574c.255.084.484.21.721.227.894.068 1.795.15 2.663-.183.285-.11.567-.226.843-.356.188-.088.153-.222.03-.345-.109-.106-.227-.203-.34-.305-.799-.714-1.703-1.165-2.804-1.156-.224 0-.306.046-.27.285.078.56-.071 1.046-.49 1.443-.116.11-.214.235-.353.39zM23.714 46.709c-.047.09-.092.137-.095.187-.024.402-.057.805-.055 1.208.005.372.03.743.072 1.112.056.5.134.997.204 1.494.013.049.03.097.051.142.153.424.3.85.46 1.27.028.076.097.137.148.204.065-.07.162-.127.19-.209.15-.426.306-.851.411-1.288.135-.571.27-1.149.315-1.73.054-.715.016-1.436.012-2.154 0-.077-.037-.153-.058-.23-.124.238-.187.471-.282.69-.137.322-.29.638-.455.945-.042.076-.17.203-.255.036a10.05 10.05 0 0 1-.4-.89c-.095-.236-.163-.483-.263-.787zm13.167-24.933-.01.069.332.139c.504.203.994.472 1.517.6.551.134 1.134.152 1.704.188.53.03.58-.061.377-.55a.22.22 0 0 1-.009-.023c-.157-.615-.524-1.114-.93-1.575-.306-.35-.684-.642-1.033-.956a.793.793 0 0 0-.162-.087c-.018.067-.06.137-.05.2.113.976-.593 1.802-1.547 1.949-.065.01-.127.032-.19.046zm-24.771.088-.015-.078c-.204-.07-.398-.155-.604-.21-.487-.128-1.086-.869-1.059-1.434.007-.143.015-.287.011-.43-.003-.13-.068-.167-.182-.091-.676.447-1.196 1.044-1.616 1.727-.188.305-.327.641-.478.968-.127.27-.017.446.285.467.64.044 1.26-.102 1.886-.185a.498.498 0 0 0 .096-.034c.28-.102.565-.2.84-.314.276-.115.558-.258.836-.386zm31.582-3.016c-.186.041-.448.092-.705.16-.07.02-.123.095-.183.144.06.066.11.16.186.192.199.086.413.137.614.219.38.152.768.294 1.128.486.408.218.823.325 1.263.192.48-.146.952-.318 1.412-.516a1.52 1.52 0 0 0 .765-.745.362.362 0 0 0-.003-.282c-.016-.035-.165-.02-.25-.009-.418.054-.834.134-1.253.168-.448.036-.9.029-1.349.045-.268.009-.536.042-.804.035-.246-.007-.49-.052-.82-.09zm-42.948-.16c.128.42.408.778.785 1.006.518.313 1.122.428 1.7.584.59.158 1.006-.262 1.495-.432.38-.132.744-.305 1.121-.453.135-.05.372-.024.325-.224-.028-.117-.243-.194-.379-.28a.232.232 0 0 0-.125-.008c-.405.027-.809.078-1.213.076-.54-.004-1.081-.043-1.621-.077-.582-.036-1.173.027-1.738-.188-.095-.036-.21-.006-.35-.006v.001zm.91-6.068c-.024.074-.062.14-.062.207.003.47.171.876.538 1.17.352.285.737.53 1.097.805.211.16.421.242.698.203.744-.102 1.492-.18 2.238-.273.07-.008.137-.047.273-.096-1.665-.616-3.261-1.184-4.783-2.016zm41.041 1.985c0 .03.004.06.006.09.085.011.169.025.255.031.101.007.203 0 .305.012.403.046.806.093 1.208.149.248.034.492.095.74.127.099.014.2-.001.29-.044.258-.142.525-.28.754-.462.43-.345.901-.66 1.134-1.193.102-.229.084-.463.016-.708-1.516.85-3.128 1.386-4.707 1.998h-.001zM8.638 11.44l.014-.065c-.184-.13-.37-.259-.553-.39-.704-.501-1.419-.988-2.107-1.51-.522-.394-1.014-.83-1.512-1.257-.138-.118-.267-.115-.294.066-.035.239-.078.508-.01.727.17.542.5 1.002.901 1.406a.545.545 0 0 0 .237.137c.462.121.933.215 1.392.349.56.163 1.115.36 1.674.533.082.025.175.004.261.004h-.003zm31.751-.059.023.085c.096-.008.19-.025.281-.05.242-.092.472-.215.717-.293.374-.12.756-.221 1.138-.318.35-.089.707-.152 1.057-.245.123-.032.26-.08.346-.167.408-.411.74-.87.91-1.435.086-.287.005-.714-.171-.85-.323.29-.62.602-.961.853-.758.56-1.542 1.08-2.309 1.626-.35.252-.684.529-1.028.794h-.003zm-20.873-1.198c-.158.278.044.664.487.723.609.08 1.194-.095 1.624-.499.43-.403.873-.605 1.45-.559.099.009.203-.019.303-.03 0-.03 0-.059.003-.088-.36-.097-.7-.282-1.108-.16-.432.128-.882.198-1.271.457-.144.101-.31.165-.486.186-.318.019-.643-.017-.998-.03h-.004zM27.5 46.127l-.047.05c.043.07.073.153.132.204.44.393.891.77 1.435 1.016.481.219 1.326-.167 1.466-.672.036-.13-.006-.2-.145-.19-.076.007-.151.02-.225.04-.623.13-1.228.047-1.821-.153-.264-.093-.527-.197-.792-.295H27.5zm-5.917.165-.068-.136c-.11.032-.221.057-.327.095-.255.095-.506.24-.771.286-.548.098-1.104.16-1.66.015-.196-.051-.249.031-.175.22.16.406.645.721 1.078.668.21-.027.442-.076.615-.19.453-.297.877-.635 1.311-.958h-.003zm2.62-38.298c.28-.004.686-.184.852-.412.107-.16.198-.327.274-.503.03-.062.051-.194.036-.2a.939.939 0 0 0-.334-.079c-.045 0-.116.09-.13.149-.075.313-.354.559-.663.576-.364.02-.634-.101-.781-.457-.073-.177-.239-.14-.372-.077-.05.023-.107.133-.09.178a1.26 1.26 0 0 0 1.208.825zm15.333 40.472-.085-.08c-.174 0-.35.008-.523-.004-.14-.009-.31-.101-.407-.05-.091.047-.102.241-.154.37-.02.054-.058.1-.08.156-.108.251-.023.369.247.412.357.058.593-.101.77-.378.087-.135.155-.285.232-.428v.002zm-5.346-1.554c.089-.045.224-.07.26-.145.035-.073-.015-.2-.046-.297-.04-.122-.121-.235-.14-.36-.025-.163-.079-.216-.247-.181-.181.03-.364.05-.547.06-.076.006-.212-.006-.217.016a.465.465 0 0 0 0 .283c.17.398.551.488.937.624zm-23.627 1.422c-.268.017-.575.025-.879.065-.053.007-.138.152-.126.222.07.387.847.746 1.183.548.054-.032.094-.166.073-.233-.062-.195-.159-.385-.25-.602zm4.283-2.438c-.075.236-.153.445-.2.66-.014.068.051.207.11.226.37.12.968-.203 1.081-.571.055-.18-.025-.264-.216-.241-.1.012-.2.012-.299 0-.168-.015-.335-.048-.475-.071l-.001-.003zm-8.577-2.563c-.176-.188-.374-.388-.556-.6-.153-.177-.248-.173-.339.034-.174.397-.084.748.187 1.07.12.14.224.123.329-.014.115-.151.232-.3.379-.49zm35.072 4.109c.142.008.285.008.428 0 .349-.043.68-.367.67-.673 0-.084-.094-.238-.145-.238-.273 0-.547.035-.805.057l-.148.854zm2.437-4.182-.047-.032a4.047 4.047 0 0 0-.105-.466c-.062-.177-.197-.178-.318-.032a4.57 4.57 0 0 1-.408.433c-.131.121-.16.213-.012.35.104.108.19.231.255.366.079.153.186.167.27.044.139-.21.246-.441.365-.663zM7.551 46.86c.027-.3.027-.296-.269-.3a4.791 4.791 0 0 1-.504-.031c-.22-.025-.297.065-.231.28.112.365.54.653.937.642.173-.004.233-.056.161-.231a2.64 2.64 0 0 1-.094-.36zM22.884 3.218c-.295.285-.369.565-.285.878.055.208.246.276.518.218.23-.05.236-.213.167-.366-.114-.253-.264-.489-.4-.73zm3.406.038-.095-.038c-.146.216-.288.433-.438.646-.105.15-.153.286.042.4.21.123.437.077.56-.079.28-.35-.049-.62-.069-.93zm13.34 42.132-.791-.413c.027.405.34.573.792.413zM9.42 45.38c.428.156.77-.016.709-.368l-.708.368zM24.173 7.059l.186-.204c-.055-.036-.115-.11-.162-.101-.077.012-.146.077-.218.12l.194.185z" fill="#fff"/></g><path d="M63.097 26.34v.53h-3.872v-.53l1.1-.123c.15-.014.259-.035.327-.062.067-.04.129-.122.183-.245a4.63 4.63 0 0 0 .245-.695l3.933-12.24h1.283l3.974 12.24c.095.327.17.559.224.695a.645.645 0 0 0 .204.245c.068.027.17.048.306.061l1.12.123v.531h-4.951v-.53l1.12-.123c.218-.028.333-.082.347-.164.027-.095-.034-.375-.183-.838L67.62 22.6h-4.972l-.836 2.615c-.15.463-.217.743-.204.838.028.082.15.136.367.163l1.121.123zm-.245-4.394h4.565l-2.282-7.111-2.283 7.11zM78.966 21.128v-.551h5.197v.551l-1.121.103c-.217.027-.346.081-.387.163-.04.082-.061.361-.061.838v4.638h-.49a3.186 3.186 0 0 0-.916-.94 4.437 4.437 0 0 1-1.386.838c-.516.204-1.114.307-1.794.307-1.086 0-2.01-.266-2.771-.797-.76-.545-1.345-1.301-1.752-2.268-.394-.968-.591-2.091-.591-3.372v-1.533c0-1.253.197-2.356.59-3.31.408-.953.999-1.696 1.773-2.227.788-.531 1.74-.797 2.853-.797 1.074 0 1.957.204 2.65.613.706.395 1.209.92 1.508 1.573.312.654.414 1.356.305 2.105l-1.752.43c.15-1.309-.014-2.31-.49-3.005-.475-.708-1.215-1.062-2.22-1.062-1.087 0-1.91.381-2.466 1.144-.544.763-.816 1.975-.816 3.637v3.413c0 1.662.279 2.881.836 3.657.57.763 1.406 1.145 2.506 1.145a3.88 3.88 0 0 0 1.55-.307c.488-.204.896-.531 1.222-.98v-2.902c0-.477-.02-.756-.061-.838-.04-.095-.17-.15-.387-.163l-1.529-.103zM94.014 13.527v-.552h3.892v.552l-1.12.102c-.218.027-.347.089-.388.184-.04.082-.06.354-.06.818v12.24h-1l-7.417-12.547v10.891c0 .463.02.743.061.838.04.082.17.136.387.163l1.121.123v.531h-3.892v-.53l1.12-.123c.218-.028.347-.082.388-.164.04-.095.06-.375.06-.838V14.631c0-.464-.02-.736-.06-.818-.041-.095-.17-.157-.387-.184l-1.121-.102v-.552h3.525l6.46 10.953V14.63c0-.464-.02-.736-.06-.818-.042-.095-.17-.157-.388-.184l-1.12-.102zM99.688 13.527v-.552h4.911v.552l-1.121.102c-.217.027-.346.082-.387.164-.041.082-.061.36-.061.838v10.584c0 .477.02.756.061.838.041.082.17.136.387.163l1.121.123v.531h-4.911v-.53l1.12-.123c.218-.028.347-.082.388-.164.04-.082.061-.361.061-.838V14.631c0-.477-.021-.757-.061-.838-.041-.082-.17-.136-.388-.164l-1.12-.102zM115.785 23.54h.53v3.33h-9.762v-.53l1.121-.123c.218-.028.347-.082.387-.164.041-.082.062-.361.062-.838V14.631c0-.477-.021-.757-.062-.838-.04-.082-.169-.136-.387-.164l-1.121-.102v-.552h9.497v3.331h-.51l-.591-2.145a.94.94 0 0 0-.142-.348c-.041-.082-.129-.13-.265-.143a4.014 4.014 0 0 0-.693-.04h-3.954v5.905h2.731c.326 0 .557-.007.693-.02.136-.028.224-.076.265-.144a1.23 1.23 0 0 0 .143-.368l.387-1.532h.53v4.781h-.53l-.387-1.532a.956.956 0 0 0-.143-.348c-.041-.081-.129-.129-.265-.143a4.024 4.024 0 0 0-.693-.04h-2.731v6.027h4.198c.327 0 .557-.006.693-.02.136-.027.224-.075.265-.143.055-.082.102-.204.143-.368l.591-2.145zM122.899 26.42c.91 0 1.643-.224 2.2-.674.571-.449.856-1.11.856-1.982 0-.694-.21-1.273-.631-1.736-.422-.477-1.155-.859-2.201-1.145l-1.406-.408c-1.033-.287-1.821-.77-2.364-1.451-.544-.681-.815-1.512-.815-2.493 0-.654.149-1.267.448-1.84.312-.571.781-1.035 1.406-1.389.639-.354 1.447-.53 2.425-.53 1.087 0 1.963.203 2.629.612.666.395 1.128.913 1.386 1.553.258.64.319 1.328.183 2.064l-1.712.368c.177-1.267.048-2.241-.387-2.922-.421-.681-1.155-1.022-2.201-1.022-.829 0-1.481.225-1.956.674-.476.436-.713 1.076-.713 1.921 0 .668.19 1.24.57 1.716.381.464 1.053.831 2.018 1.104l1.406.409c2.269.626 3.403 1.954 3.403 3.984 0 .722-.17 1.376-.509 1.962-.327.572-.829 1.028-1.508 1.369-.666.34-1.509.51-2.527.51a6.385 6.385 0 0 1-2.038-.326 3.775 3.775 0 0 1-1.651-1.124c-.448-.531-.747-1.267-.897-2.207l1.223-.409c.068.9.265 1.594.591 2.085.326.49.734.837 1.223 1.042.489.19 1.005.286 1.549.286zM138.037 23.54h.53v3.33h-9.211v-.45l6.989-12.79h-4.503c-.476 0-.761.033-.856.101-.095.055-.177.198-.245.43l-.591 2.145h-.53v-3.33h8.743v.449l-6.97 12.791h4.952c.326 0 .557-.006.693-.02.136-.027.224-.075.265-.143.054-.082.102-.204.143-.368l.591-2.145zM140.365 13.507v-.532h4.911v.532l-1.121.122c-.217.014-.346.068-.387.164-.041.082-.061.36-.061.838v6.007l5.095-6.13c.339-.395.509-.633.509-.715.014-.096-.095-.15-.326-.164l-1.039-.122v-.532h3.872v.532l-1.04.122a.957.957 0 0 0-.326.082c-.081.027-.176.102-.285.225-.095.109-.258.3-.489.572l-3.179 3.841 3.872 6.866c.176.314.306.538.387.675.095.136.19.224.285.265.095.027.225.048.388.061l.978.123v.531h-3.179l-3.913-7.09-1.61 1.92v3.515c0 .477.02.756.061.838.041.082.17.136.387.163l1.121.123v.531h-4.911v-.53l1.121-.123c.217-.028.346-.082.387-.164.041-.082.061-.361.061-.838V14.631c0-.477-.02-.757-.061-.838-.041-.096-.17-.15-.387-.164l-1.121-.122zM156.333 26.34v.53h-3.872v-.53l1.1-.123c.15-.014.258-.035.326-.062.068-.04.129-.122.184-.245a4.62 4.62 0 0 0 .244-.695l3.933-12.24h1.284l3.974 12.24c.095.327.17.559.224.695a.645.645 0 0 0 .204.245c.068.027.17.048.306.061l1.12.123v.531h-4.952v-.53l1.121-.123c.218-.028.333-.082.347-.164.027-.095-.034-.375-.184-.838l-.835-2.615h-4.973l-.835 2.615c-.15.463-.218.743-.204.838.027.082.15.136.367.163l1.121.123zm-.245-4.394h4.565l-2.282-7.111-2.283 7.11zM170.893 13.527v-.552h5.543c1.331 0 2.33.314 2.996.94.665.613.998 1.404.998 2.37v.552c0 .709-.21 1.315-.632 1.819-.421.504-1.012.858-1.773 1.063.951.163 1.692.524 2.222 1.082.53.56.795 1.26.795 2.105v.552c0 .994-.347 1.812-1.04 2.452-.679.64-1.698.96-3.057.96h-6.052v-.53l1.121-.123c.217-.028.346-.082.387-.164.041-.082.061-.361.061-.838V14.631c0-.477-.02-.757-.061-.838-.041-.082-.17-.136-.387-.164l-1.121-.102zm5.543.102h-2.201v5.844h2.201c1.413 0 2.119-.824 2.119-2.472v-.838c0-1.69-.706-2.534-2.119-2.534zm.509 6.498h-2.71v6.09h2.71c1.481 0 2.222-.88 2.222-2.636v-.838c0-.845-.191-1.492-.571-1.941-.367-.45-.917-.675-1.651-.675zM183.232 13.527v-.552h4.911v.552l-1.121.102c-.217.027-.346.082-.387.164-.041.082-.061.36-.061.838v10.584c0 .477.02.756.061.838.041.082.17.136.387.163l1.121.123v.531h-4.911v-.53l1.12-.123c.218-.028.347-.082.388-.164.04-.082.061-.361.061-.838V14.631c0-.477-.021-.757-.061-.838-.041-.082-.17-.136-.388-.164l-1.12-.102zM192.95 26.34v.53h-3.872v-.53l1.101-.123a1.26 1.26 0 0 0 .326-.062c.068-.04.129-.122.183-.245.068-.136.15-.368.245-.695l3.933-12.24h1.284l3.974 12.24c.095.327.169.559.224.695a.645.645 0 0 0 .204.245c.067.027.169.048.305.061l1.121.123v.531h-4.952v-.53l1.121-.123c.217-.028.333-.082.346-.164.027-.095-.034-.375-.183-.838l-.836-2.615h-4.972l-.835 2.615c-.15.463-.218.743-.204.838.027.082.149.136.367.163l1.12.123zm-.244-4.394h4.565l-2.283-7.111-2.282 7.11zM211.677 23.499h.55v3.371h-9.272v-.53l1.121-.123c.217-.028.346-.082.387-.164.041-.082.061-.361.061-.838v-4.434l-1.61.818-.285-.634 1.895-.96V14.63c0-.477-.02-.757-.061-.838-.041-.082-.17-.136-.387-.164l-1.121-.102v-.552h4.911v.552l-1.121.102c-.217.027-.346.082-.387.164-.041.082-.061.36-.061.838v4.474l2.649-1.348.285.633-2.934 1.492v6.334h3.688c.326 0 .557-.006.693-.02.136-.027.224-.075.265-.143.054-.082.102-.204.143-.368l.591-2.186zM224.527 19.146v1.533c0 1.989-.455 3.555-1.365 4.7-.911 1.13-2.215 1.696-3.913 1.696-1.712 0-3.023-.566-3.933-1.696-.897-1.145-1.345-2.711-1.345-4.7v-1.533c0-1.975.448-3.528 1.345-4.659.91-1.144 2.221-1.716 3.933-1.716 1.698 0 3.002.572 3.913 1.716.91 1.131 1.365 2.684 1.365 4.66zm-1.936-1.021c0-1.703-.285-2.909-.856-3.617-.557-.722-1.386-1.083-2.486-1.083-1.1 0-1.936.361-2.507 1.083-.557.708-.835 1.914-.835 3.617V21.7c0 1.702.278 2.915.835 3.637.571.722 1.407 1.083 2.507 1.083s1.929-.361 2.486-1.083c.571-.722.856-1.935.856-3.637v-3.576zM226.3 12.975h10.842v3.331h-.53l-.591-2.145c-.041-.164-.088-.28-.143-.348-.041-.082-.129-.13-.265-.143a4.014 4.014 0 0 0-.693-.04h-2.302v11.585c0 .477.02.756.061.838.041.082.17.136.387.163l1.121.123v.531h-4.911v-.53l1.12-.123c.218-.028.347-.082.388-.164.04-.082.061-.361.061-.838V13.63h-2.323c-.313 0-.544.014-.693.041-.136.014-.231.062-.286.143a1.43 1.43 0 0 0-.122.348l-.591 2.145h-.53v-3.33zM240.235 26.34v.53h-3.872v-.53l1.1-.123c.15-.014.259-.035.326-.062a.522.522 0 0 0 .184-.245 4.62 4.62 0 0 0 .244-.695l3.933-12.24h1.284l3.974 12.24c.095.327.17.559.224.695a.645.645 0 0 0 .204.245c.068.027.17.048.306.061l1.121.123v.531h-4.952v-.53l1.12-.123c.218-.028.333-.082.347-.164.027-.095-.034-.375-.184-.838l-.835-2.615h-4.972l-.836 2.615c-.149.463-.217.743-.204.838.027.082.15.136.367.163l1.121.123zm-.245-4.394h4.565l-2.282-7.111-2.283 7.11z" fill="#C8AC75"/><path d="m153.9 36.307.044-.242h2.149l-.045.242-.499.045a.335.335 0 0 0-.134.035c-.029.018-.053.057-.071.117a2.135 2.135 0 0 0-.062.286l-.821 4.63c-.035.21-.047.331-.035.367.012.036.065.06.16.072l.482.053-.045.233h-2.148l.044-.233.499-.053a.425.425 0 0 0 .134-.027c.03-.018.054-.054.071-.108.018-.06.039-.16.063-.303l.82-4.631c.036-.209.048-.331.036-.367-.012-.036-.066-.06-.161-.071l-.481-.045zM160.015 42.19a.699.699 0 0 1-.562-.242c-.13-.161-.187-.408-.169-.742-.256.363-.523.626-.802.787-.28.16-.565.241-.856.241-.416 0-.716-.143-.901-.43-.178-.291-.226-.684-.142-1.18l.383-2.18c.036-.203.048-.322.036-.358-.012-.042-.063-.069-.152-.08l-.49-.045.044-.242h1.427l-.508 2.897c-.078.453-.072.78.017.983.09.203.238.304.446.304.143 0 .297-.038.464-.116.172-.078.351-.215.535-.411.19-.197.386-.471.588-.823l.499-2.834h.732l-.535 3.085c-.078.44-.107.733-.09.876.018.143.075.214.17.214.089 0 .184-.05.285-.152.107-.107.199-.286.277-.536l.321.197c-.131.274-.286.473-.464.599a.924.924 0 0 1-.553.187zM162.961 42.234c-.261 0-.505-.036-.731-.107a1.206 1.206 0 0 1-.552-.349c-.137-.167-.214-.384-.232-.653l.517-.178c-.006.387.086.652.276.795.191.143.428.215.714.215.332 0 .603-.072.811-.215a.72.72 0 0 0 .321-.625.673.673 0 0 0-.178-.465c-.113-.137-.313-.25-.598-.34l-.517-.17a1.367 1.367 0 0 1-.669-.429 1.111 1.111 0 0 1-.231-.706c0-.22.053-.435.16-.644.113-.209.288-.381.526-.518.238-.143.553-.215.945-.215.386 0 .693.069.918.206.232.137.384.313.455.527.077.215.074.444-.009.688l-.731.143c.149-.41.161-.727.036-.947-.125-.22-.363-.33-.713-.33-.286 0-.515.074-.687.223-.172.143-.258.34-.258.59 0 .208.056.375.169.5.119.12.282.212.49.277l.517.17c.309.096.553.245.731.447.185.203.277.456.277.76 0 .227-.063.444-.187.653-.119.208-.309.378-.571.51-.256.124-.588.187-.999.187zM171.222 41.269c-.208.363-.469.616-.784.76a2.333 2.333 0 0 1-.936.205c-.41 0-.752-.098-1.026-.295a1.546 1.546 0 0 1-.561-.822c-.101-.358-.11-.772-.027-1.243l.036-.197c.071-.405.208-.76.41-1.064.208-.31.466-.55.775-.724.315-.173.669-.259 1.061-.259.303 0 .559.05.767.152.208.101.366.235.473.402.107.161.16.334.16.519 0 .298-.107.554-.321.769-.208.214-.499.384-.874.51-.368.118-.796.196-1.283.232l-.464.035c-.077.566-.039.993.116 1.279.16.28.422.42.784.42.143 0 .298-.027.464-.08a1.34 1.34 0 0 0 .473-.278c.148-.13.261-.313.338-.545l.419.224zm-2.487-1.708-.062.402.41-.026c.487-.03.861-.11 1.123-.242.262-.131.443-.289.544-.474.101-.184.151-.37.151-.554 0-.232-.068-.414-.205-.545-.13-.137-.315-.206-.552-.206-.315 0-.604.131-.865.393-.262.257-.443.674-.544 1.252zM173.54 42.234c-.261 0-.505-.036-.731-.107a1.21 1.21 0 0 1-.553-.349c-.137-.167-.214-.384-.232-.653l.517-.178c-.005.387.087.652.277.795.19.143.428.215.713.215.333 0 .603-.072.811-.215a.72.72 0 0 0 .321-.625.669.669 0 0 0-.178-.465c-.113-.137-.312-.25-.597-.34l-.517-.17a1.358 1.358 0 0 1-.669-.429 1.106 1.106 0 0 1-.232-.706c0-.22.054-.435.161-.644.113-.209.288-.381.526-.518.237-.143.552-.215.945-.215.386 0 .692.069.918.206.232.137.383.313.455.527.077.215.074.444-.009.688l-.731.143c.148-.41.16-.727.035-.947-.124-.22-.362-.33-.713-.33-.285 0-.514.074-.686.223-.173.143-.259.34-.259.59 0 .208.057.375.169.5.119.12.283.212.491.277l.517.17c.309.096.553.245.731.447.184.203.276.456.276.76 0 .227-.062.444-.187.653-.119.208-.309.378-.57.51-.256.124-.589.187-.999.187zM178.881 41.233c-.161.381-.348.643-.562.786a1.158 1.158 0 0 1-.669.215c-.452 0-.755-.146-.909-.438-.155-.292-.193-.668-.116-1.127l.383-2.234c.036-.197.048-.313.036-.35-.012-.04-.065-.068-.161-.08l-.481-.044.045-.242h.686l.205-1.17.758-.153-.232 1.323h1.453l-.053.286h-1.453l-.5 2.843c-.077.424-.077.712 0 .867.084.155.205.233.366.233.16 0 .3-.063.419-.188.125-.13.241-.363.348-.697l.437.17zM185.12 42.19c-.22 0-.395-.066-.526-.197-.125-.138-.193-.343-.205-.617-.202.316-.419.54-.651.67a1.483 1.483 0 0 1-.713.188c-.351 0-.636-.107-.856-.322-.22-.22-.368-.512-.446-.876a3.113 3.113 0 0 1 .009-1.216l.036-.196c.077-.418.214-.775.41-1.073.202-.298.446-.525.731-.68a1.82 1.82 0 0 1 .909-.241c.25 0 .467.05.651.152.19.095.345.232.464.411.083-.065.163-.14.241-.223l.231-.25h.312l-.543 3.084c-.078.44-.107.733-.09.876.018.143.075.214.17.214.089 0 .184-.05.285-.152.107-.107.202-.286.285-.536l.312.197c-.13.274-.282.473-.454.599a.939.939 0 0 1-.562.187zm-2.63-2.137c-.101.596-.089 1.058.036 1.385.13.328.335.492.615.492.113 0 .241-.03.383-.09.143-.065.291-.184.446-.357.16-.179.324-.435.49-.769l.366-2.11c-.107-.232-.241-.402-.401-.51a.947.947 0 0 0-.553-.16c-.363 0-.651.143-.865.43-.208.285-.354.678-.437 1.18l-.08.509zM189.302 38.122a.744.744 0 0 0-.339.098 1.377 1.377 0 0 0-.383.358c-.137.172-.285.42-.446.742l-.499 2.825h-.731l.651-3.702c.035-.202.047-.321.035-.357-.012-.042-.062-.069-.151-.08l-.491-.045.045-.242h1.4l-.161.93c.232-.37.47-.632.713-.787.244-.154.482-.232.714-.232.19 0 .359.054.508.16.148.108.252.284.312.528l-.624.42c-.048-.226-.119-.384-.214-.473a.444.444 0 0 0-.339-.143zM191.876 42.234c-.261 0-.505-.036-.731-.107a1.21 1.21 0 0 1-.553-.349c-.136-.167-.214-.384-.231-.653l.517-.178c-.006.387.086.652.276.795.19.143.428.215.713.215.333 0 .604-.072.812-.215a.72.72 0 0 0 .321-.625.67.67 0 0 0-.179-.465c-.113-.137-.312-.25-.597-.34l-.517-.17a1.367 1.367 0 0 1-.669-.429 1.112 1.112 0 0 1-.232-.706c0-.22.054-.435.161-.644.113-.209.288-.381.526-.518.238-.143.553-.215.945-.215.386 0 .692.069.918.206.232.137.384.313.455.527.077.215.074.444-.009.688l-.731.143c.149-.41.16-.727.036-.947-.125-.22-.363-.33-.714-.33-.285 0-.514.074-.686.223-.173.143-.259.34-.259.59 0 .208.057.375.17.5.119.12.282.212.49.277l.517.17c.309.096.553.245.731.447.184.203.277.456.277.76 0 .227-.063.444-.188.653-.119.208-.309.378-.57.51-.256.124-.589.187-.999.187zM200.717 40.24a2.628 2.628 0 0 1-.419 1.073 2.172 2.172 0 0 1-.731.688 1.898 1.898 0 0 1-.919.233 1.48 1.48 0 0 1-.651-.134 1.345 1.345 0 0 1-.463-.394c-.113.06-.214.132-.303.215a5.588 5.588 0 0 0-.286.268h-.214l1.035-5.936c.035-.202.047-.322.035-.357-.012-.042-.062-.069-.151-.08l-.473-.046.036-.24h1.417l-.517 2.931c.202-.304.416-.518.642-.643a1.42 1.42 0 0 1 .696-.188c.356 0 .645.11.864.33.22.215.369.504.446.868.078.363.075.769-.009 1.216l-.035.196zm-1.391-2.297a.925.925 0 0 0-.392.107c-.143.066-.295.194-.455.385-.161.184-.33.456-.508.813l-.348 2.02c.107.233.241.403.401.51.161.101.351.152.571.152.368 0 .657-.14.865-.42.214-.286.362-.68.445-1.18l.09-.51c.101-.602.086-1.064-.045-1.385-.131-.328-.339-.492-.624-.492zM205.713 39.981l-.036.197c-.113.65-.36 1.156-.74 1.52-.38.357-.868.536-1.462.536-.416 0-.758-.104-1.025-.313a1.657 1.657 0 0 1-.544-.85 2.609 2.609 0 0 1-.036-1.18l.036-.205c.119-.65.365-1.153.74-1.51.374-.364.856-.546 1.444-.546.422 0 .767.107 1.034.322.268.208.452.492.553.85.101.357.113.75.036 1.18zm-.767-.232c.107-.608.08-1.067-.08-1.377-.161-.31-.425-.465-.794-.465-.327 0-.609.131-.847.394-.232.256-.398.679-.499 1.269l-.089.545c-.107.608-.081 1.07.08 1.386.16.31.422.465.785.465.332 0 .615-.131.847-.394.237-.262.404-.688.499-1.278l.098-.545zM211.559 41.403c-.131.274-.286.473-.464.599a.95.95 0 0 1-.571.187c-.273 0-.475-.095-.606-.286-.131-.19-.157-.489-.08-.894l.357-1.752c.089-.453.083-.78-.018-.983a.518.518 0 0 0-.5-.304c-.142 0-.303.038-.481.116a1.944 1.944 0 0 0-.553.411c-.19.19-.389.465-.597.823l-.49 2.825h-.732l.642-3.702c.036-.202.048-.321.036-.357-.012-.042-.062-.069-.151-.08l-.482-.045.045-.242h1.39l-.16.948c.262-.37.535-.635.82-.796.291-.16.583-.241.874-.241.44 0 .755.146.945.438.196.292.244.685.143 1.18l-.366 1.788c-.059.304-.086.524-.08.662.006.13.065.196.178.196.101 0 .202-.05.303-.152.107-.107.199-.286.277-.536l.321.197zM213.647 36.71c-.291 0-.437-.144-.437-.43 0-.149.047-.274.143-.375a.513.513 0 0 1 .392-.161c.137 0 .244.038.321.116a.38.38 0 0 1 .125.304.542.542 0 0 1-.152.384.497.497 0 0 1-.392.161zm-1.302 1.25.045-.24h1.417l-.535 3.084c-.077.44-.107.733-.089.876.018.143.074.214.17.214.089 0 .184-.05.285-.152.107-.107.199-.286.276-.536l.321.197c-.131.274-.285.473-.463.599a.926.926 0 0 1-.553.187c-.274 0-.479-.107-.615-.322-.131-.214-.158-.545-.081-.992l.419-2.431c.036-.203.048-.322.036-.358-.012-.042-.062-.069-.151-.08l-.482-.045zM220.328 41.269c-.208.363-.47.616-.785.76a2.333 2.333 0 0 1-.936.205c-.41 0-.752-.098-1.025-.295a1.542 1.542 0 0 1-.562-.822c-.101-.358-.11-.772-.027-1.243l.036-.197c.071-.405.208-.76.41-1.064.208-.31.467-.55.776-.724.315-.173.669-.259 1.061-.259.303 0 .559.05.767.152.208.101.365.235.472.402a.92.92 0 0 1 .161.519c0 .298-.107.554-.321.769-.208.214-.5.384-.874.51-.369.118-.797.196-1.284.232l-.464.035c-.077.566-.038.993.116 1.279.161.28.422.42.785.42.143 0 .297-.027.464-.08.166-.054.323-.147.472-.278.149-.13.262-.313.339-.545l.419.224zm-2.488-1.708-.062.402.41-.026c.488-.03.862-.11 1.123-.242.262-.131.443-.289.544-.474.101-.184.152-.37.152-.554 0-.232-.068-.414-.205-.545-.131-.137-.315-.206-.553-.206-.315 0-.603.131-.865.393-.261.257-.443.674-.544 1.252zM223.903 41.233c-.161.381-.348.643-.562.786a1.158 1.158 0 0 1-.669.215c-.451 0-.755-.146-.909-.438-.155-.292-.193-.668-.116-1.127l.383-2.234c.036-.197.048-.313.036-.35-.012-.04-.065-.068-.16-.08l-.482-.044.045-.242h.686l.205-1.17.758-.153-.232 1.323h1.453l-.053.286h-1.453l-.5 2.843c-.077.424-.077.712 0 .867.084.155.206.233.366.233s.3-.063.419-.188c.125-.13.241-.363.348-.697l.437.17zM230.142 42.19c-.22 0-.395-.066-.526-.197-.125-.138-.193-.343-.205-.617-.202.316-.419.54-.651.67a1.483 1.483 0 0 1-.713.188c-.351 0-.636-.107-.856-.322-.22-.22-.368-.512-.446-.876a3.113 3.113 0 0 1 .009-1.216l.036-.196c.077-.418.214-.775.41-1.073.202-.298.446-.525.731-.68a1.82 1.82 0 0 1 .909-.241c.25 0 .467.05.651.152.19.095.345.232.464.411.083-.065.163-.14.241-.223l.231-.25h.312l-.543 3.084c-.078.44-.107.733-.09.876.018.143.075.214.17.214.089 0 .184-.05.285-.152.107-.107.202-.286.285-.536l.313.197c-.131.274-.283.473-.455.599a.939.939 0 0 1-.562.187zm-2.63-2.137c-.101.596-.089 1.058.036 1.385.13.328.336.492.615.492.113 0 .241-.03.383-.09.143-.065.291-.184.446-.357.16-.179.324-.435.49-.769l.366-2.11c-.107-.232-.241-.402-.401-.51a.947.947 0 0 0-.553-.16c-.363 0-.651.143-.865.43-.208.285-.354.678-.437 1.18l-.08.509zM235.242 41.269c-.208.363-.469.616-.784.76a2.333 2.333 0 0 1-.936.205c-.41 0-.752-.098-1.026-.295a1.546 1.546 0 0 1-.561-.822c-.101-.358-.11-.772-.027-1.243l.036-.197c.071-.405.208-.76.41-1.064.208-.31.466-.55.775-.724.315-.173.669-.259 1.061-.259.303 0 .559.05.767.152.208.101.366.235.473.402.107.161.16.334.16.519 0 .298-.107.554-.321.769-.208.214-.499.384-.874.51-.368.118-.796.196-1.283.232l-.464.035c-.077.566-.039.993.116 1.279.16.28.422.42.784.42.143 0 .298-.027.464-.08a1.34 1.34 0 0 0 .473-.278c.148-.13.261-.313.338-.545l.419.224zm-2.487-1.708-.063.402.411-.026c.487-.03.861-.11 1.123-.242.261-.131.443-.289.544-.474.101-.184.151-.37.151-.554 0-.232-.068-.414-.205-.545-.13-.137-.315-.206-.552-.206-.315 0-.604.131-.865.393-.262.257-.443.674-.544 1.252zM240.44 37.675l-1.133 6.374h-.731l.473-2.646c-.202.31-.416.527-.642.652-.226.12-.458.179-.695.179-.351 0-.639-.107-.865-.322-.22-.22-.369-.512-.446-.876a3.113 3.113 0 0 1 .009-1.216l.036-.196c.077-.418.216-.775.419-1.073.202-.298.445-.525.731-.68a1.82 1.82 0 0 1 .909-.241c.25 0 .467.048.651.143.19.095.348.23.472.402.197-.113.396-.28.598-.5h.214zm-3.272 2.378c-.101.596-.089 1.058.035 1.385.131.328.339.492.624.492.119 0 .25-.033.393-.098.142-.072.294-.2.454-.385.167-.19.336-.462.509-.813l.356-2.012c-.107-.244-.243-.42-.41-.527a1.001 1.001 0 0 0-.57-.161c-.363 0-.651.143-.865.43-.214.285-.363.678-.446 1.18l-.08.509zM245.053 42.19a.699.699 0 0 1-.562-.242c-.131-.161-.187-.408-.169-.742-.256.363-.523.626-.803.787-.279.16-.564.241-.855.241-.417 0-.717-.143-.901-.43-.178-.291-.226-.684-.143-1.18l.384-2.18c.035-.203.047-.322.035-.358-.011-.042-.062-.069-.151-.08l-.49-.045.044-.242h1.427l-.509 2.897c-.077.453-.071.78.018.983.089.203.238.304.446.304.143 0 .297-.038.464-.116.172-.078.35-.215.535-.411.19-.197.386-.471.588-.823l.499-2.834h.731l-.535 3.085c-.077.44-.107.733-.089.876.018.143.075.214.17.214.089 0 .184-.05.285-.152.107-.107.199-.286.276-.536l.321.197c-.13.274-.285.473-.463.599a.926.926 0 0 1-.553.187zM248.169 36.71c-.292 0-.437-.144-.437-.43a.515.515 0 0 1 .535-.536c.136 0 .243.038.321.116a.38.38 0 0 1 .124.304.54.54 0 0 1-.151.384.497.497 0 0 1-.392.161zm-1.302 1.25.045-.24h1.417l-.535 3.084c-.077.44-.107.733-.089.876.018.143.074.214.169.214.09 0 .185-.05.286-.152.107-.107.199-.286.276-.536l.321.197c-.131.274-.285.473-.464.599a.92.92 0 0 1-.552.187c-.274 0-.479-.107-.615-.322-.131-.214-.158-.545-.081-.992l.419-2.431c.036-.203.048-.322.036-.358-.012-.042-.062-.069-.152-.08l-.481-.045z" fill="#D9D9D9"/><defs><clipPath id="a"><path fill="#fff" d="M0 0h49.036v53H0z"/></clipPath></defs></svg>